<?xml version="1.0" standalone="no"?>
<!DOCTYPE svg PUBLIC "-//W3C//DTD SVG 1.1//EN" "http://www.w3.org/Graphics/SVG/1.1/DTD/svg11.dtd" >
<svg xmlns="http://www.w3.org/2000/svg" xmlns:xlink="http://www.w3.org/1999/xlink" version="1.1">
<metadata>
Created by FontForge 20190801 at Wed Aug 28 15:47:29 2019
 By Ruwan Yatawara
</metadata>
<defs>
<font id="font-entgra" horiz-adv-x="512" >
  <font-face 
    font-family="font-entgra"
    font-weight="400"
    font-stretch="normal"
    units-per-em="512"
    panose-1="2 0 5 3 0 0 0 0 0 0"
    ascent="448"
    descent="-64"
    bbox="-0.78125 -68.1667 538 452"
    underline-thickness="25"
    underline-position="-50"
    unicode-range="U+E600-E73AB"
  />
<missing-glyph horiz-adv-x="187" 
d="M17 0v341h136v-341h-136zM34 17h102v307h-102v-307z" />
    <glyph glyph-name=".notdef" horiz-adv-x="187" 
d="M17 0v341h136v-341h-136zM34 17h102v307h-102v-307z" />
    <glyph glyph-name=".null" horiz-adv-x="0" 
 />
    <glyph glyph-name="nonmarkingreturn" horiz-adv-x="170" 
 />
    <glyph glyph-name="airplay" unicode="&#xe600;" 
d="M512 396v-294h-100l-44 62h84v169h-392v-169h84l-45 -62h-99v294h512zM434 -12h-351l174 228z" />
    <glyph glyph-name="api" unicode="&#xe601;" 
d="M512 243v-99l-51 -7q-4 -7 -11 -23.5t-11 -23.5l33 -48l-70 -69l-44 36q-40 -16 -51 -18l-7 -55h-95l-4 59q-18 3 -47 18l-44 -37l-70 70l37 44q-6 8 -22 47l-55 7v96l55 7q5 22 18 47l-33 44l66 70l44 -33q9 4 25.5 11t25.5 11l7 51h99l4 -51q36 -15 51 -22l40 33
l70 -70l-33 -40q7 -18 22 -47zM256 29q69 0 116 47t47 116t-47 116t-116 47t-116 -47t-47 -116t47 -116t116 -47zM242 134h-25l-10 26h-47l-10 -26h-25l46 116h25zM199 180l-16 43l-16 -43h32zM255 134v116h38q21 0 28 -1q10 -3 16.5 -12t6.5 -23q0 -10 -3.5 -17.5
t-9.5 -11.5t-13 -6q-8 -1 -24 -1h-15v-44h-24zM279 231v-34h12q14 0 19 2t7.5 6t2.5 9q0 6 -3.5 10.5t-9.5 5.5q-4 1 -17 1h-11zM363 134v116h24v-116h-24z" />
    <glyph glyph-name="apn" unicode="&#xe602;" horiz-adv-x="444" 
d="M242 55l-123 -119l-119 120l31 31l66 -66l-4 349h44l4 -352l71 68zM232 298l-30 31l123 119l119 -120l-31 -31l-66 66l4 -349h-44l-4 352z" />
    <glyph glyph-name="vpn" unicode="&#xe603;" horiz-adv-x="503" 
d="M332 324h-33v44q0 19 -14 33t-33.5 14t-33.5 -14t-14 -33v-44h-29v44q0 33 22 56.5t55 23.5q32 0 56 -24t24 -56v-44zM365 309v-161h-227v161h227zM263 240q7 7 7 18q0 8 -5 13t-13.5 5t-13.5 -5t-5 -13q0 -11 8 -18v-44h22v44zM65 -64l-65 182h40l46 -135l45 135h39
l-66 -182h-39zM188 -64v182h59q34 0 44 -3q16 -4 26.5 -17.5t10.5 -35.5q0 -17 -6 -28.5t-15.5 -18t-19.5 -8.5q-13 -2 -38 -2h-24v-69h-37zM225 87v-51h20q22 0 29.5 2.5t11.5 9t4 14.5q0 10 -6 16t-15 8q-6 1 -26 1h-18zM359 -64v182h35l75 -121v121h34v-182h-37l-73 119
v-119h-34z" />
    <glyph glyph-name="apple" unicode="&#xe604;" horiz-adv-x="443" 
d="M132 327q21 0 52 -11t47 -11q14 0 43.5 11t55.5 11q58 0 98 -51q-31 -17 -46 -47t-12.5 -60.5t22 -58t51.5 -39.5q-15 -36 -33 -62q-14 -21 -25 -34.5t-29.5 -26t-36.5 -12.5q-16 0 -40.5 11t-47.5 11q-25 0 -50 -11t-42 -11q-41 0 -87 69q-43 67 -50.5 142.5t20.5 117.5
q13 20 31 34t38.5 21t40.5 7zM315 448q8 -38 -22 -84q-9 -11 -22 -20t-28.5 -14.5t-29.5 -5.5q-3 21 4 43.5t21 36.5q26 37 77 44z" />
    <glyph glyph-name="windows" unicode="&#xe605;" horiz-adv-x="538" 
d="M245 177h293v-241l-289 40zM0 181h219v-201l-219 29v172zM219 404v-201h-219v176zM534 448v-241l-289 -4v205z" />
    <glyph glyph-name="android" unicode="&#xe606;" horiz-adv-x="436" 
d="M307 448q5 -4 1 -11q-3 -3 -22 -32q67 -35 71 -99h-277q-1 32 20 59q18 25 50 40q-2 3 -9 13t-10 15q-3 4 -3 5q-5 5 1 10h3l5 -6q14 -21 19 -28q3 -5 8 -3q54 18 108 -1q5 -1 8 3q3 5 24 35h3zM292 360q0 3 -1 6t-3 5t-5 3t-6 1q-6 0 -10 -4.5t-4 -10.5t4 -10.5t10.5 -4
t10.5 4.5t4 10zM173 360q0 6 -4 10.5t-10.5 4.5t-10.5 -4.5t-4 -10.5t4 -10.5t10.5 -4t10.5 4.5t4 10zM0 124v137l2 5q8 23 33 19q10 -1 17 -9t7 -19q1 -64 0 -129q0 -11 -7 -19t-17 -9q-24 -4 -33 19zM245 -38v74h-54v-66q0 -8 -1 -12q-3 -11 -12 -17t-20 -5t-18.5 9.5
t-7.5 20.5v71h-19q-15 0 -24.5 9t-9.5 25v209v6h277l1 -6v-208q0 -35 -35 -35h-18v-74q-1 -11 -9.5 -19t-19.5 -8q-12 0 -21 7.5t-9 18.5zM436 254v-62v-61q0 -14 -8.5 -23t-21.5 -9t-21.5 9t-8.5 23q0 86 1 125q0 12 7 20t18 10q12 1 21 -5.5t12 -17.5q1 -3 1 -9z" />
    <glyph glyph-name="wifi" unicode="&#xe607;" 
d="M51 218q-8 6 -16 14.5t-18.5 19.5t-16.5 17q67 68 160.5 93t188.5 1t163 -94l-51 -51q-86 84 -206.5 83.5t-203.5 -83.5zM369 126q-113 87 -226 0q-19 15 -48 51q60 63 156 66t170 -66q-33 -33 -52 -51zM187 82q25 28 66.5 29t71.5 -29q-10 -11 -34 -34.5t-35 -34.5
q-7 7 -21.5 20.5t-26.5 25.5t-21 23z" />
    <glyph glyph-name="application" unicode="&#xe608;" 
d="M278 225l124 -84l-33 -22l44 -59l-25 -22l-48 63l-33 -22zM18 276v-278h476v278h-476zM0 411h512v-22v-420h-512v420v22zM390 388h-39v-39h39v39zM442 388h-39v-39h39v39zM494 388h-40v-39h40v39zM494 325h-475v-25h475v25z" />
    <glyph glyph-name="configurations" unicode="&#xe609;" horiz-adv-x="475" 
d="M362 112v-66h95v66h-95zM18 112v-66h95v66h-95zM190 221v-66h95v66h-95zM388 448h47v-318h40v-103h-40v-91h-47v88h-44v106h40v318h4zM216 448h47v-208h41v-103h-41v-201h-47v201h-44v103h40v208h4zM40 448h48v-318h40v-103h-40v-91h-48v91h-40v103h40v318z" />
    <glyph glyph-name="battery" unicode="&#xe60a;" 
d="M105 245h140l105 -105h-245v105zM71 279v-173l339 -1v173zM0 350h478v-90h34v-139h-34v-87h-478v316z" />
    <glyph glyph-name="notification" unicode="&#xe60b;" horiz-adv-x="510" 
d="M222 417q6 32 34 31q13 -1 21.5 -9t9.5 -22l18 -4q89 -24 111 -119q6 -28 6 -71q0 -49 8 -88q11 -59 57 -94q1 -1 23 -19h-510q3 3 4 3q14 12 18 15q51 39 59 107q4 31 6 84t12 84q29 84 120 101h1h1zM254 -64q-26 0 -46.5 17.5t-20.5 39.5h136q-1 -23 -22 -40t-47 -17z
" />
    <glyph glyph-name="blank-document" unicode="&#xe60c;" horiz-adv-x="370" 
d="M258 448l112 -109v-403h-370v512h258zM343 -37v364h-94v94h-222v-458h316z" />
    <glyph glyph-name="bookmark" unicode="&#xe60d;" horiz-adv-x="372" 
d="M186 352l-40 -81l-89 -13l65 -63l-16 -89l80 42l80 -42l-15 89l65 63l-90 13zM0 448h372v-512l-186 110l-186 -110v512z" />
    <glyph glyph-name="bpel" unicode="&#xe60e;" 
d="M425 151q38 -8 62.5 -37.5t24.5 -68.5q0 -45 -32 -77t-77 -32t-76.5 32t-31.5 77q0 25 11 48t31 38t44 20v20h-250v-20q37 -8 61.5 -37.5t24.5 -68.5q0 -45 -31.5 -77t-76.5 -32t-77 32t-32 77q0 25 11.5 48t31 38t44.5 20v64h11h33h103v18q-24 5 -44 20t-31.5 38
t-11.5 48q0 45 32 77t77 32t77 -32t32 -77q0 -39 -25 -68.5t-62 -37.5v-18h103h36h8v-64zM191 339.5q0 -26.5 19 -46t46 -19.5t46 19.5t19 45.5q0 18 -9 33t-23.5 23.5t-32.5 8.5q-27 0 -46 -19t-19 -45.5zM173 44.5q0 26.5 -19 46t-45.5 19.5t-45.5 -19.5t-19 -46t19 -45.5
t45.5 -19t45.5 19t19 45.5zM403 -20q18 0 33 8.5t23.5 23.5t8.5 33q0 26 -19 45.5t-45.5 19.5t-45.5 -19.5t-19 -46t19 -45.5t45 -19z" />
    <glyph glyph-name="bpmn" unicode="&#xe60f;" 
d="M512 350q0 -35 -21.5 -61.5t-54.5 -34.5v-40v-44h-90l-90 -90l-90 90h-46v-40q22 -5 39.5 -18.5t27.5 -34t10 -43.5q0 -40 -29 -69t-69.5 -29t-69.5 29t-29 69q0 35 21.5 61.5t54.5 34.5v84h44h46l90 90l90 -90h46v40q-33 8 -55 34.5t-22 61.5q0 40 29 69t69.5 29
t69.5 -29t29 -69zM160 34q0 13 -5 24.5t-13 19.5t-19.5 13t-24.5 5q-25 0 -43 -18t-18 -43.5t18 -43.5t43 -18q17 0 31.5 8t22.5 22.5t8 30.5zM352 350q0 -26 18 -44t44 -18q16 0 30.5 8t22.5 22.5t8 31.5q0 25 -18 43t-43 18q-17 0 -31.5 -8t-22.5 -22.5t-8 -30.5z" />
    <glyph glyph-name="compare" unicode="&#xe610;" horiz-adv-x="452" 
d="M285 122v-43l-23 18l-60 46l60 50l23 20v-48l86 -1v-42h-86zM300 108l83 -70l-83 -64v43h-86l1 43h85v48zM351 448l101 -95v-315h-46l-42 36h53v263h-77v76h-159v-38h-35v73h205zM289 -36v-24v-4h-289v410h196l100 -96l-35 -30v14h-76v76h-150v-339h226v24h28v-31z" />
    <glyph glyph-name="bug" unicode="&#xe611;" horiz-adv-x="507" 
d="M78 434q0 19 19 12q35 -11 66 -41.5t45 -67.5q22 11 45 12h0.5h0.5v0q24 -1 45 -12q15 37 45.5 67.5t66.5 41.5q18 7 18 -12q0 -4 -1.5 -7t-3 -4t-5 -2.5t-5.5 -2.5q-33 -8 -58 -33.5t-33 -60.5q-1 -1 -1 -4q33 -31 33 -85v-10h-101.5h-101.5v10q0 54 33 85q1 3 0 4
q-9 35 -33.5 60.5t-58.5 33.5q-1 1 -5 2.5t-5.5 2.5t-3 4t-1.5 7zM495 105q20 -7 9 -23q0 -1 -1 -2q-7 -11 -23 -4q-18 7 -41.5 18t-28.5 13q-9 4 -13 1q-2 -1 -5 -3l-3 -2q-1 -11 -2 -15t-3 -9q37 -16 44 -19q10 -4 11 -10q4 -21 8.5 -46.5t8.5 -46.5q2 -10 -2 -15.5
t-13 -5.5q-12 0 -18 18q-4 17 -6.5 37.5t-6.5 37.5q-1 9 -6 11q-7 4 -30 13q-20 -45 -57 -72q-29 -23 -63 -24v0v0q-34 1 -63 24q-38 27 -57 72q-23 -9 -31 -13q-5 -2 -6 -11q-3 -17 -6 -37.5t-7 -37.5q-6 -18 -18 -18q-8 0 -12.5 5.5t-1.5 15.5q3 21 7.5 46.5t8.5 46.5
q1 6 11 10q8 3 45 19q-2 5 -3 9t-2 15q-1 0 -4 2t-4 3q-5 3 -13 -1q-6 -2 -29 -13t-41 -18q-18 -6 -25 6q-11 16 10 23q19 9 43 19t43 19q6 2 15 -4l2 -1l1 -1v7v9q0 8 -11 13q-7 3 -18 6t-22 5.5t-18 5.5t-11 11q-5 10 -15.5 38t-18.5 45q-6 15 8 20q12 4 18 -13
q4 -11 13 -33.5l13 -32.5q3 -8 11 -11q7 -1 23 -4.5t24 -5.5q4 -1 4 4q0 6 6 7h27h65.5h76.5h65h28q5 -1 5 -7q0 -5 5 -4q7 2 23 5.5t24 4.5q8 3 10 11q4 8 8.5 20.5t9.5 24.5t8 21q6 17 18 13q14 -5 9 -20q-7 -13 -13 -29t-11.5 -30.5t-9.5 -23.5q-4 -8 -11 -11
q-10 -3 -30 -8t-29 -9q-11 -5 -11 -13v-9v-7q1 0 2 1t2 1q8 6 14 4q19 -9 43 -19t44 -19z" />
    <glyph glyph-name="calendar" unicode="&#xe612;" 
d="M512 397v-93h-512v59v34h128v35q0 7 5 11.5t12 4.5h2q7 0 12 -4.5t5 -11.5v-35h186v35q0 7 5 11.5t13 4.5h1q7 0 12.5 -4.5t5.5 -11.5v-35h125zM145.5 321q14.5 0 24.5 9t10 22q0 17 -16 26v-22q0 -7 -5 -11.5t-12 -4.5h-2q-7 0 -12 4.5t-5 11.5v23q-17 -9 -17 -27
q0 -13 10 -22t24.5 -9zM367.5 321q14.5 0 24.5 9t10 22q0 17 -15 26v-22q0 -7 -5.5 -11.5t-12.5 -4.5h-1q-8 0 -13 4.5t-5 11.5v23q-17 -9 -17 -27q0 -13 10 -22t24.5 -9zM0 287h511v-1h1v-350h-1h-511v351zM356 249h-82v-68h82v68zM274 145v-68h82v68h-82zM237 77v68h-82
v-68h82zM237 249h-82v-68h82v68zM37 249v-68h82v68h-82zM37 145v-68h82v68h-82zM37 -27h82v67h-82v-67zM155 -27h82v67h-82v-67zM274 -27h82v67h-82v-67zM475 -27v67h-82v-67h82zM475 77v68h-82v-68h82zM475 181v68h-82v-68h82z" />
    <glyph glyph-name="camera" unicode="&#xe613;" 
d="M363 365h149v-392h-512v392h149v46h214v-46zM256 36q55 0 93.5 39t38.5 94t-38.5 93.5t-93.5 38.5t-93.5 -38.5t-38.5 -93.5t38.5 -94t93.5 -39zM346 170q0 -37 -26.5 -63.5t-63.5 -26.5t-63.5 26.5t-26.5 63.5t26.5 63t63.5 26q25 0 45.5 -12t32.5 -32.5t12 -44.5z" />
    <glyph glyph-name="contract" unicode="&#xe614;" 
d="M68 181l174 -3l-1 -168h-45l1 92l-165 -167l-32 31l167 169l-100 2zM512 417l-182 -184l100 -1l-1 -44l-174 3l1 168h44v-93l180 181z" />
    <glyph glyph-name="add" unicode="&#xe615;" 
d="M512 219v-54h-229v-229h-54v229h-229v54h229v229h54v-229h229z" />
    <glyph glyph-name="minus" unicode="&#xe616;" 
d="M512 165h-512v54h512v-54z" />
    <glyph glyph-name="check" unicode="&#xe617;" horiz-adv-x="507" 
d="M156 -13l-156 155l39 39l117 -116l313 313l38 -39z" />
    <glyph glyph-name="cancel" unicode="&#xe618;" 
d="M512 409l-217 -217l217 -217l-39 -39l-217 217l-217 -217l-39 39l217 217l-217 217l39 39l217 -217l217 217z" />
    <glyph glyph-name="checklist" unicode="&#xe619;" 
d="M134 85v-133h-134v133h134zM35 51v-64h64v64h-64zM512 42v-47h-280v47h280zM169 225l-111 -95l-58 70l30 25l33 -39l80 69zM512 216v-47h-280v47h280zM143 429l26 -30l-111 -95l-58 70l30 25l33 -39zM512 390v-47h-280v47h280z" />
    <glyph glyph-name="circle" unicode="&#xe61a;" 
d="M0 192q0 106 75 181t181 75t181 -75t75 -181t-75 -181t-181 -75t-181 75t-75 181z" />
    <glyph glyph-name="clear" unicode="&#xe61b;" horiz-adv-x="534" 
d="M306 310l-149 -162l-32 44q-5 13 -3.5 23.5t6.5 16.5l5 6l22 26l-155 143l38 41l155 -144l28 31q10 9 22.5 9.5t18.5 -3.5l7 -4zM523 169q-6 -13 -11 -23q-53 -103 -163 -180q-16 -12 -29.5 -19.5t-19.5 -9.5l-6 -1l-43 78q-15 24 -34 52.5t-31 44.5l-11 17l153 171
q33 -29 119 -68l87 -35q-5 -11 -10 -24l-1 -2v-1zM495 179l-35.5 16.5t-76 37t-50.5 27.5l-123 -133q85 -129 96 -156l34 20q-15 24 -28 44q-5 7 -8 12q-7 10 -4.5 15.5t11.5 -0.5q52 -43 59 -47l35 31l-53 66q-1 1 -1.5 3.5t1.5 5.5t9 0q43 -34 72 -44l26 37q-48 51 -54 59
l-1 5q1 3 6 2q55 -32 70 -33z" />
    <glyph glyph-name="expand" unicode="&#xe61c;" 
d="M512 448v-512h-255v48h207l-1 414h-415l1 -199h-49v249h512zM380 193v95l-133 -129l-30 32l132 128l-97 1l1 44l171 -3v-169zM0 141h205v-205h-205v205zM37 -27h132v132h-132v-132z" />
    <glyph glyph-name="clock" unicode="&#xe61d;" 
d="M256 448q70 0 128.5 -34.5t93 -93t34.5 -128.5q0 -106 -75 -181t-181 -75t-181 75t-75 181t75 181t181 75zM256 -9q83 0 142 59t59 142q0 55 -27 101t-73 73t-101 27q-83 0 -142 -59t-59 -142t59 -142t142 -59zM294 209l80 -1l-1 -44l-82 2q-14 -20 -37 -20q-12 0 -22 6
t-16 16t-6 22q0 28 25 40v114h44v-118q11 -7 15 -17z" />
    <glyph glyph-name="cloud" unicode="&#xe61e;" 
d="M419 227q38 0 65.5 -27.5t27.5 -66t-27.5 -66t-65.5 -27.5h-354q-27 0 -46 19.5t-19 46.5t19 46t46 19q2 0 6 -1q6 21 20 37t34 25.5t42 9.5h5q5 28 22.5 51.5t43.5 37t56 13.5q50 0 86 -34t39 -83z" />
    <glyph glyph-name="circle-outline" unicode="&#xe61f;" 
d="M256 411q-93 0 -156 -63t-63 -156t63 -156t156 -63t156 63t63 156t-63 156t-156 63zM256 448q107 0 181.5 -74.5t74.5 -181.5t-74.5 -181.5t-181.5 -74.5t-181.5 74.5t-74.5 181.5t74.5 181.5t181.5 74.5z" />
    <glyph glyph-name="contact" unicode="&#xe620;" 
d="M475 329h-438v-274h438v274zM512 365v-346h-512v346h512zM252 120q4 -12 4 -26h-98h-98q0 14 4 25q6 16 14 21t44 18q6 2 12 7q4 2 4 8v3q-19 25 -19 60q0 40 39 40t39 -40q0 -33 -18 -58v-6q3 -8 4 -8q6 -4 11 -6q27 -8 44 -18q9 -6 14 -20zM454 223v-25h-162l1 25h161z
M455 172v-25h-163v25h163zM292 96v25h163v-25h-163z" />
    <glyph glyph-name="copy" unicode="&#xe621;" horiz-adv-x="404" 
d="M268 81v-37l-199 1v36h199zM69 187l199 -1v-36h-199v37zM69 291h199v-36h-199v36zM404 448v-473h-66v-39h-338v451h338v-375h29v399h-236v-6h-36v43h309zM301 -25v37v338h-170h-36h-58v-377h264v2z" />
    <glyph glyph-name="dashboard" unicode="&#xe622;" 
d="M263 241l112 90q1 1 3.5 2.5t8.5 3.5t10 -4q10 -8 -2 -20q-10 -10 -91 -117l1 -5q0 -21 -15 -36t-36 -15t-35.5 15t-14.5 36t14.5 35.5t35.5 14.5h9zM254 213q-9 0 -15.5 -6.5t-6.5 -15.5t6.5 -15.5t15.5 -6.5t15.5 6.5t6.5 15.5t-6.5 15.5t-15.5 6.5zM256 404
q-88 0 -150 -62t-62 -150t62 -150t150 -62t150 62t62 150t-62 150t-150 62zM256 448q106 0 181 -75t75 -181t-75 -181t-181 -75t-181 75t-75 181t75 181t181 75zM443 204q1 -4 1 -12q0 -7 -1 -11h-39v11v12h39zM389 127q6 11 9 21l37 -14q-4 -10 -9 -21zM423 278q5 -9 9 -21
l-36 -16q-5 13 -10 21zM397 68q-8 -9 -17 -17l-28 28q9 8 17 17zM304 52q12 4 22 9l15 -36q-11 -6 -21 -9zM313 371q12 -4 21 -8l-14 -37q-12 5 -21 8zM256 44h11v-39q-3 -1 -11 -1t-11 1v39h11zM256 380q8 0 11 -1v-39h-11h-11v39q3 1 11 1zM192 58q12 -5 21 -8l-14 -37
q-12 4 -21 8zM171 359q11 6 21 9l16 -36q-12 -4 -22 -9zM144 95q8 -9 16 -16l-27 -28q-11 8 -17 16zM115 316q8 9 17 17l28 -28q-9 -8 -17 -17zM116 143q5 -13 10 -21l-37 -16q-5 9 -9 21zM77 250q4 10 9 21l37 -14q-6 -11 -9 -21zM108 203v-11v-12h-39q-1 4 -1 12q0 7 1 11
h39z" />
    <glyph glyph-name="database" unicode="&#xe623;" horiz-adv-x="393" 
d="M34 419q31 14 78 22q101 16 194 -5q45 -10 73 -27q8 -6 11 -10q5 -8 1 -15q-1 -3 -7 -7q-32 -21 -85 -32q-116 -23 -226 5q-13 4 -23 7q-13 4 -23 9q-12 6 -21 13q-4 3 -4 4q-1 0 -2 3q-1 6 2 12l1 1q4 5 13 11q8 5 18 9zM192 303q68 0 117.5 10t65.5 19l16 10
q1 -79 0 -88q-51 -43 -162 -49q-8 -2 -37 -0.5t-61 3.5t-69.5 14t-60.5 31v89q2 -2 6 -4.5t19.5 -8.5t35.5 -11.5t54.5 -10t75.5 -4.5zM192 173q68 1 117.5 10.5t65.5 19.5l16 9q1 -79 0 -88q-51 -42 -162 -48q-8 -3 -37 -1.5t-61 4t-69.5 14t-60.5 31.5v88q5 -4 16.5 -10
t60.5 -17t114 -12zM192 34q68 1 117.5 11t65.5 19l16 10q1 -80 0 -89q-51 -42 -162 -48q-8 -2 -37 -1t-61 3.5t-69.5 14.5t-60.5 31v88q5 -4 16.5 -10t60.5 -17t114 -12z" />
    <glyph glyph-name="delete" unicode="&#xe624;" horiz-adv-x="449" 
d="M272 227v-244h59v244h-59zM119 227v-244h59v244h-59zM32 269h386v-333h-386v333zM128 448h194v-62h127v-66h-449v66h128v62z" />
    <glyph glyph-name="deploy" unicode="&#xe625;" horiz-adv-x="507" 
d="M499 448h8v-15q-6 -74 -29 -120q-20 -49 -65 -95v0h-1q-29 -31 -135 -124q-3 -2 -3 -8v-26t1 -29.5t1 -23.5t-3 -11q-9 -8 -27 -23t-27 -22q-7 -8 -7 3q-1 8 -3 19t-5 22t-6.5 20.5t-5.5 15.5l-2 6l-31 -22q-12 -7 -18 -1l-48 48l-14 13q-6 6 0 19l22 31q-7 3 -17 6
t-32.5 8.5t-34.5 5.5q-11 0 -4 7q6 8 14 17.5t16 19.5t14 18q4 4 11 4h80q5 0 7 3q8 10 35.5 43.5t46 54.5t38.5 41q38 44 108 73q55 22 116 22zM350.5 331q-16.5 0 -28 -12t-11.5 -28q0 -11 5.5 -20t14.5 -14.5t20 -5.5q16 0 28 11.5t12 28t-12 28.5t-28.5 12zM142 -14
q-26 -31 -59.5 -41t-81.5 -9l1 1l-1 -1q-3 48 5.5 81.5t38.5 61.5q6 -5 6.5 -7t-1.5 -8q-11 -25 -15 -47.5t-2 -31.5l2 -10v0l1 -2l2 -1l0.5 -0.5l0.5 -0.5q32 -8 88 19q6 3 8 2.5t7 -6.5z" />
    <glyph glyph-name="display" unicode="&#xe626;" 
d="M37 368v-248h438v248h-438zM0 404h512v-321h-512v321zM163 71h187v-48h38v-37h-262v37h37v48z" />
    <glyph glyph-name="dial-up" unicode="&#xe627;" 
d="M0 301q8 41 26 75q2 4 7 5q81 32 173 40q127 10 235 -19l32 -10q5 -2 7 -6q21 -33 30 -77v-3q-51 -13 -95 -1q-9 3 -34 12q-4 1 -4 4q1 21 -23 30t-67 10q-60 2 -101 -6q-17 -3 -36 -11q-20 -9 -19 -28q1 -3 -2 -5q-63 -36 -123 -18q-7 2 -6 8zM109 225q-5 -3 -9 -5
q-36 -14 -75 -5q-15 3 -21 19q-6 18 -3 38q36 -11 67 -6q33 4 64 23q4 -46 -23 -64zM378 297q65 -32 134 -12q-1 -27 -1 -29q-3 -24 -28 -29q-30 -7 -61 1q-9 2 -18 7q-21 12 -24 36q0 2 -2 26zM252 224v-119h-119v119h119zM208 129v71h-11q-3 -7 -9 -11.5t-11 -6.5v-12
q10 3 17 10v-51h14zM379 224v-119h-119v119h119zM344 141h-27q1 2 2.5 4t8.5 8q6 6 8 9q4 5 6 9t2 9q0 8 -6 14t-17 6q-9 0 -15.5 -5t-7.5 -16l13 -1q1 5 3.5 8t6.5 3t6.5 -2.5t2.5 -7.5q0 -4 -3 -8q-2 -3 -11 -12q-11 -10 -15 -16.5t-5 -13.5h48v12zM252 95v-119h-119v119
h119zM169 19q1 -9 7 -14.5t16 -5.5t17 6.5t7 16.5q0 6 -4 10.5t-10 5.5q10 6 10 15q0 7 -5 12q-6 6 -16 6q-5 0 -10 -2t-7.5 -6t-3.5 -10l12 -2q1 4 3.5 6.5t6 2.5t5.5 -2t2 -6t-3 -6.5t-8 -2.5l-2 -11q4 1 6 1q4 0 7 -3t3 -8t-3 -8.5t-7 -3.5t-7 3t-3 8zM379 95v-119h-119
v119h119zM323 0h13v14h9v12h-9v45h-11l-31 -45v-12h29v-14zM323 26h-16l16 24v-24z" />
    <glyph glyph-name="document" unicode="&#xe628;" horiz-adv-x="370" 
d="M258 448l112 -109v-403h-370v512h258zM343 -37v364h-94v94h-222v-458h316zM304 186h-238v36h238v-36zM304 100h-238v37h238v-37zM304 15h-238v37h238v-37z" />
    <glyph glyph-name="ellipsis" unicode="&#xe629;" 
d="M135 127h-135v136h135v-136zM323 263v-136h-135v136h135zM512 263v-136h-135v136h135z" />
    <glyph glyph-name="dss" unicode="&#xe62a;" horiz-adv-x="437" 
d="M418 48l19 -2v-6v-1v-20v-7l-6 -1h-1l-12 -2q-2 -8 -7 -17l3 -5l9 -11l-24 -24l-6 4l-8 7l-2 1q-8 -4 -18 -7l-2 -13l-1 -7h-7h-20h-7l-2 17l-1 3q-9 3 -16 7l-11 -8l-9 12l1 1l12 1v36l-13 2l8 10l-25 25l-11 -8l-1 11l14 2q2 10 6 17l-12 15v1l24 24l16 -11q9 5 18 7
l3 19h34l3 -19q9 -2 18 -7l15 11l24 -24l-12 -15q5 -9 7 -18zM309 28q0 -14 11 -24.5t25 -10.5q16 0 26.5 10.5t10.5 24.5q0 22 -19 32q-8 5 -18 5q-20 0 -31 -18q-5 -8 -5 -19zM278 -33l7 -9l-14 -14l-9 8q-5 -3 -10 -5l-1 -11h-20l-1 12q-7 2 -9 4l-10 -8l-13 14l7 9
q-3 6 -4 10l-11 1v19l11 2q1 4 4 9l-7 9l13 14l9 -7q5 3 10 5l2 10h19l1 -10q1 0 1.5 -0.5l0.5 -0.5q6 -2 9 -4l8 7l14 -14l-7 -8q3 -5 4 -10l11 -1v-20l-11 -1q-1 -4 -4 -10zM241 -33q9 0 16 7q2 4 3 7l1 1v6q0 8 -5 13t-11 7h-4q-8 0 -14 -6t-6 -14q0 -9 6 -15t14 -6z
M206 -63q-142 -3 -205 49v88q6 -4 17.5 -10t60 -17t113.5 -12h10l-16 -17l8 -11l-14 -2l1 -35l13 -2l-8 -10zM34 419q77 32 161 29h12q84 0 152 -28l2 -1.5t5 -2.5t6.5 -3t6.5 -4t6 -5t5 -6t2 -6.5t-1.5 -6.5t-5.5 -7t-11 -7q-66 -33 -163 -35q-121 -3 -192 35
q-14 7 -17.5 14t0 12.5t12 11t12.5 7.5t8 3zM256 81l1 -2q-20 -2 -29 -3q-7 -2 -36 -0.5t-61 3.5t-69 14t-61 31v88q6 -4 17.5 -10t60 -16.5t113.5 -12.5q42 1 78.5 5t57.5 10t36.5 11.5t20.5 9.5l6 4q1 -79 0 -89q-10 -8 -17 -12l-3 17l-50 1l-3 -22q-4 -1 -9 -4l-18 14z
M391 254q-51 -43 -163 -48q-7 -2 -36 -1t-61 3.5t-69 14t-61 31.5v88q6 -4 17.5 -10t60 -17t113.5 -12q67 1 117 10.5t66 19.5l16 9q1 -79 0 -88z" />
    <glyph glyph-name="ebook" unicode="&#xe62b;" horiz-adv-x="336" 
d="M336 182v-220q0 -14 -11 -22l-8 -4h-298q-19 7 -19 26v247.5v212.5q0 4 1 7q2 13 18 19h298q19 -7 19 -31v-235zM184 -48q8 0 8 8t-8 8h-32q-8 0 -8 -8t8 -8h16h16zM306 -16v416h-21v-85v-98l-1 -5l-60 54l-61 -54l1 4l-1 184h-130v-416h273zM241 333q14 15 16 17l-23 3
q-9 20 -10 21l-10 -21l-22 -3l15 -18q-3 -18 -4 -22l21 11q16 -8 21 -11z" />
    <glyph glyph-name="edit" unicode="&#xe62c;" 
d="M161 -20l-60.5 60.5l-56.5 56.5q46 45 137 136.5t137 137.5q16 -17 38 -38.5t43 -42.5t37 -36q-41 -43 -87 -88.5t-101.5 -100.5t-86.5 -85zM452 270l-59 59l-59 59l58 60l120 -116q-60 -61 -60 -62zM141 -40l-141 -24q4 27 13 77.5t11 62.5q46 -46 117 -116z" />
    <glyph glyph-name="endpoint" unicode="&#xe62d;" 
d="M72 307l-72 73l68 68l72 -72l49 50v-162l-165 -5zM490 259h-162l-5 165l48 -48l73 72l68 -68l-72 -72zM488 125l-48 -48l72 -73l-68 -68l-72 72l-49 -50v162zM22 125h162l5 -165l-48 48l-73 -72l-68 68l72 72zM342 192q0 -36 -25 -61t-61 -25t-61 25t-25 61t25 61t61 25
t61 -25t25 -61zM298 192q0 17 -12.5 29.5t-29.5 12.5t-29.5 -12.5t-12.5 -29.5t12.5 -29.5t29.5 -12.5t29.5 12.5t12.5 29.5z" />
    <glyph glyph-name="folder" unicode="&#xe62e;" 
d="M0 389h223l33 -76h256v-322h-512v398z" />
    <glyph glyph-name="faq" unicode="&#xe62f;" 
d="M512 448v-366h-166l-226 -146l52 145h-172v367h512zM316 367q-21 19 -59 19q-36 0 -58 -18t-21 -50v-1h43q0 16 10.5 24.5t25.5 8.5q17 0 26.5 -10t9.5 -27q0 -16 -8 -28.5t-23 -26.5q-20 -16 -25.5 -27.5t-5.5 -37.5h44q0 16 2.5 24t12.5 17q21 17 34 36.5t13 42.5
q0 35 -21 54zM231 119h44v42h-44v-42z" />
    <glyph glyph-name="error" unicode="&#xe630;" 
d="M256 448q106 0 181 -75t75 -181t-75 -181t-181 -75t-181 75t-75 181t75 181t181 75zM404 301l-39 39l-109 -109l-108 108l-39 -38l108 -109l-109 -109l39 -39l109 109l108 -108l39 38l-108 109z" />
    <glyph glyph-name="export" unicode="&#xe631;" 
d="M434 359l-64 59l28 30l114 -106l-97 -107l-29 28l46 55q-189 -19 -269 -144q-9 -14 -16.5 -29t-12 -28t-8 -25.5t-5 -22.5t-2.5 -17t-2 -11v-4h-40q0 6 1 16.5t8.5 41.5t20.5 59.5t40 64t63 63t94.5 49.5t129.5 28zM464 -14l-1 198h49v-248h-512v512h255v-49
q-156 0 -207 1l1 -414h415z" />
    <glyph glyph-name="factory-reset" unicode="&#xe632;" 
d="M177 322v-57q0 -6 3.5 -9.5t9.5 -3.5h2q6 0 10 3.5t4 9.5v73q16 7 35 9v-105q0 -2 1 -4.5t2.5 -4.5t4 -3t5.5 -1h2q6 0 10 4t4 9v106q18 -2 35 -8v-75q0 -6 3.5 -9.5t9.5 -3.5h2q6 0 10 3.5t4 9.5v60q55 -39 57 -107h16v-29h-302v29h18q2 65 54 104zM397 153l-29 -3
q-4 -14 -12 -27l19 -24l-37 -38l-25 19q-13 -7 -27 -11l-4 -31h-53l-4 32q-14 4 -26 10l-25 -19l-37 38l7 9l12 16q-6 11 -10 24l-31 4v15v12h85q0 -23 16.5 -39t39.5 -16t39.5 16t16.5 39h85v-12v-14zM256 448q69 0 128 -34.5t93.5 -93.5t34.5 -128q0 -106 -75 -181
t-181 -75q-67 0 -124.5 32t-92.5 88t-39 123v13h39v-11q4 -87 67 -146.5t150 -59.5q59 0 109 29t79 79t29 109q0 90 -63.5 153.5t-153.5 63.5q-89 0 -152 -62l8 -7l41 -33l-149 -58l25 159l44 -36h1q75 76 182 76z" />
    <glyph glyph-name="file-browse" unicode="&#xe633;" 
d="M0 0v384h5h144q5 0 7 -4q6 -9 17 -28t16 -28q3 -4 8 -4h245h6v-43h-382q-8 -34 -8 -36l-27 -116l11 -18q29 99 43 149h427q-8 -28 -9 -31q-48 -167 -64 -220q-1 -5 -6 -5h-428h-5zM338 92q25 50 0 94q-26 48 -83 48q-39 0 -66 -29t-26 -70q2 -49 44 -74.5t86 -4.5l1 0.5
l1 0.5q8 3 12 5l2 1l1 -1l49 -50l25 26l-49 49q1 2 3 5zM185 138q-1 30 20 51t52 22q19 1 36 -8t26.5 -25.5t10.5 -36.5q0 -29 -21 -50.5t-51 -22.5q-29 -1 -50.5 19.5t-22.5 50.5z" />
    <glyph glyph-name="filter" unicode="&#xe634;" 
d="M194 192h128v-172l-128 -84v256zM0 448h512v-44l-190 -194h-128l-194 194v44z" />
    <glyph glyph-name="message" unicode="&#xe635;" 
d="M512 448v-366h-166l-227 -146l53 145h-172v367h512z" />
    <glyph glyph-name="forum" unicode="&#xe636;" 
d="M387 145h-204l-125 -92l1 92h-59v275l388 -1v-222zM203 72l-1 51h36v-18h124l73 -69v69h44v179h-62v33l95 -1v-57v-186l-44 -1l-1 -108l-112 108h-152z" />
    <glyph glyph-name="gadget" unicode="&#xe637;" 
d="M512 243v-99l-51 -7q-4 -7 -11 -23.5t-11 -23.5l33 -48l-70 -69l-44 36q-40 -16 -51 -18l-7 -55h-95l-4 59q-18 3 -47 18l-44 -37l-70 70l37 44q-6 8 -22 47l-55 7v96l55 7q5 22 18 47l-33 44l66 70l44 -33q9 4 25.5 11t25.5 11l7 51h99l4 -51q36 -15 51 -22l40 33
l70 -70l-33 -40q7 -18 22 -47zM256 29q69 0 116 47t47 116t-47 116t-116 47t-116 -47t-47 -116t47 -116t116 -47zM148 114l70 71l31 -31l-71 -70q-6 -6 -15 -6t-15 6t-6 15t6 15zM324 245l-38 -38l-15 15l38 38l15 30l31 16l15 -15l-16 -31zM330 163q17 -1 28.5 -13
t11.5 -29q0 -10 -4 -19l-29 29q-1 2 -5 3q-2 1 -5 1q-6 0 -10 -4q-6 -7 -3 -15q1 -3 3 -5l29 -29q-9 -4 -19 -4q-16 0 -28.5 11.5t-13.5 28.5v3q0 7 2 15l-87 87q-8 -2 -15 -2h-3q-17 1 -28.5 13.5t-11.5 28.5q0 10 4 19l29 -29q2 -2 5 -3q2 -1 5 -1q6 0 10 4q6 7 3 15
q-1 3 -3 5l-29 29q9 4 19 4q11 0 20.5 -5t15.5 -14.5t6 -20.5l1 -3q0 -7 -3 -14l88 -88q7 3 14 3z" />
    <glyph glyph-name="grid" unicode="&#xe638;" horiz-adv-x="513" 
d="M0 448h213v-213h-213v213zM300 448h213v-213h-213v213zM300 -64v213h213v-213h-213zM0 -64v213h213v-213h-213z" />
    <glyph glyph-name="hdd" unicode="&#xe639;" horiz-adv-x="382" 
d="M95 73q-22 0 -37 -12t-15 -28.5t15 -28.5t37 -12h2.5h2.5l3 1q5 0 9 1l87 18l98 20l-98 21l-87 17q-4 1 -9 2l-3 1v-1zM191 307q23 0 39 -16t16 -39t-16 -39t-39 -16t-39 16t-16 39t16 39t39 16zM191 390q-57 0 -97.5 -40.5t-40.5 -97.5t40.5 -97.5t97.5 -40.5t97.5 40.5
t40.5 97.5t-40.5 97.5t-97.5 40.5zM0 448h382v-512h-382v512z" />
    <glyph glyph-name="home" unicode="&#xe63a;" 
d="M449 170l-1 -198h-142v142h-95v-142h-143v203l192 148zM32 177l-32 35l261 200l251 -201l-26 -40l-225 180z" />
    <glyph glyph-name="hour-glass" unicode="&#xe63b;" horiz-adv-x="359" 
d="M244 239q-18 -16 -28 -27q-7 -8 -9 -16q-2 -13 9 -24q19 -18 31 -29q54 -46 64 -106q2 -11 4 -33q1 -3 1 -12.5v-11.5h-7h-259h-8v8q-2 40 11 77q15 42 57 78l30 27q6 7 9 14q1 4 1 7q1 12 -9 22q-9 8 -27 25q-11 10 -16 15q-30 28 -43 64q-15 36 -14 76l1 11h266h7v-7
q2 -35 -8 -68q-14 -47 -63 -90zM200 221q6 7 14 15q5 5 15 14t14 13q33 30 46 67q8 26 9 55h-237q1 -48 23 -85q13 -21 51 -55q17 -15 25 -26q11 -14 10 -29t-12 -27q-12 -13 -39 -38q-46 -41 -55 -94q0 -2 -3 -32h236h1q-1 44 -18 77q-14 27 -51 60q-20 17 -29 27
q-23 28 0 58zM264 300q-16 -21 -35 -40q-30 -29 -37 -41q-5 -9 -7.5 -22t-2.5 -21.5v-25v-23.5q0 -26 3 -35q5 -15 27 -35q6 -5 25.5 -23.5t30.5 -28.5h-81h-96q9 9 27 26t28 25q19 19 25 31q6 13 6 51v14v15.5t-0.5 13.5t-2 15t-3.5 14q-3 7 -8 14q-5 8 -13 16q-5 6 -14 14
l-6.5 5.5t-9.5 8.5q-8 8 -14 15l-6 8q-2 2 -3 4q-1 1 -1.5 2.5t-0.5 2.5l17.5 0.5t42 0t50 -0.5h42h17.5zM359 448v-31h-359v31h359zM0 -33h359v-31h-359v31z" />
    <glyph glyph-name="import" unicode="&#xe63c;" 
d="M0 448q7 0 17.5 -1t41 -8.5t59 -20.5t64.5 -40t63 -63t49 -94.5t28 -129.5l60 64l29 -28l-105 -114l-108 97l28 29l55 -46q-18 189 -143 269q-31 20 -65.5 31.5t-53.5 12.5l-19 2v40zM48 -14h415l1 414h-207v48h255v-512h-512v249l49 -1q-1 -185 -1 -198z" />
    <glyph glyph-name="incoming-call" unicode="&#xe63d;" 
d="M107 -62q-40 10 -72 31q-4 2 -6 7q-27 83 -29 175q-3 127 34 234q5 15 11 30q2 5 6 7q35 19 80 26l2 -1q10 -52 -5 -95q-3 -9 -13 -33q-2 -3 -5 -3q-20 2 -31 -22q-10 -23 -14 -66q-5 -60 0 -101q2 -18 9 -37q7 -20 27 -20q2 0 4 -3q33 -64 11 -124q-2 -6 -9 -5zM175 -62
q-18 -5 -39 -1q13 36 11 67q-3 33 -19 65q45 1 62 -27q2 -5 4 -9q12 -37 1 -75q-4 -15 -20 -20zM135 315q36 63 19 133q28 -3 29 -3q24 -4 28 -29q4 -31 -5 -62q-3 -8 -9 -17q-13 -20 -37 -22h-25zM512 215v-44l-291 1l68 -70l-32 -31l-118 123l119 119l31 -31l-67 -66z" />
    <glyph glyph-name="info" unicode="&#xe63e;" 
d="M282 280h-55v44h55v-44zM282 42h-55v176h55v-176zM256 -13q85 0 145 60t60 145t-60 145t-145 60t-145 -60t-60 -145t60 -145t145 -60zM256 -64q-107 0 -181.5 74.5t-74.5 181.5t74.5 181.5t181.5 74.5t181.5 -74.5t74.5 -181.5t-74.5 -181.5t-181.5 -74.5z" />
    <glyph glyph-name="invitation" unicode="&#xe63f;" 
d="M450 188l62 44v-296h-512v296l62 -44l194 -139zM257 77l-207 148l1 140h411v-141zM87 243l170 -121l168 121v85h-338v-85zM257 449l113 -63h-230z" />
    <glyph glyph-name="jaggery" unicode="&#xe640;" 
d="M40 103h-40v47h40v-47zM135 284v-161q0 -32 -4 -45t-16 -20.5t-30 -7.5q-6 0 -14 1t-17 4l8 37q3 -1 6 -1h5q7 0 11 2.5t5.5 7t1.5 24.5v159h44zM91 306v41h44v-41h-44zM214 233l-40 7q7 24 23.5 35.5t48.5 11.5q30 0 44.5 -7t20 -17.5t5.5 -39.5v-51q0 -22 2 -32.5
t8 -22.5h-44q-1 5 -4 13q-1 4 -1 6q-12 -11 -24.5 -16.5t-27.5 -5.5q-26 0 -40.5 14t-14.5 35q0 14 6.5 25t18.5 17t35 10q31 6 43 11v4q0 13 -6 18.5t-24 5.5q-12 0 -18.5 -5t-10.5 -16zM273 197q-9 -3 -27 -7q-18 -3 -24 -7q-8 -6 -8 -16q0 -9 6.5 -15.5t17.5 -6.5
q12 0 23 7q8 6 10 15q2 6 2 21v9zM356 106l50 -6q1 -8 6 -12q6 -4 19 -4q18 0 26 5q6 3 9 11q2 5 2 20v24q-20 -27 -50 -27q-33 0 -53 29q-15 22 -15 55q0 42 20 64t50 22q31 0 51 -27v24h41v-150q0 -29 -5 -43.5t-13.5 -23t-23.5 -13t-37 -4.5q-42 0 -60 14.5t-18 36.5
q0 2 1 5zM395 204q0 -27 10 -39t25 -12q17 0 28 12.5t11 37.5q0 26 -11 38.5t-27 12.5t-26 -12.5t-10 -37.5z" />
    <glyph glyph-name="java" unicode="&#xe641;" horiz-adv-x="377" 
d="M178 173q-34 26 -50 59q-26 54 40 104q3 3 20 14.5t27 21t15 19.5q9 17 9 39q1 16 -1 18q2 -2 3.5 -4.5t5 -12t5 -18.5t-0.5 -22t-9 -24q-8 -13 -20 -24.5t-28.5 -24.5t-24.5 -20q-22 -21 -18 -49q4 -31 27 -76zM285 340q-50 -37 -61 -58q-7 -10 -5.5 -20t6 -15.5
t10.5 -15.5t8 -20q1 -8 -1.5 -17.5t-7.5 -16t-10 -12t-9 -8.5l-4 -3q1 3 3 7t4 14t0 16q-2 8 -12.5 21t-13.5 21q-10 29 5 51q12 19 42 35q11 7 25 13q1 0 9.5 3t11.5 5zM168 117q-44 -1 -74 2.5t-43 11t-9 17.5q1 5 10.5 9t21 5.5t23 2.5t19.5 2h8l-35 -11q-13 -5 -12 -10
q0 -6 41 -8.5t93 0.5t79 11q-4 -3 -11.5 -8t-39.5 -13.5t-71 -10.5zM298 73q6 4 16 11t25 24.5t13.5 29.5t-13.5 18.5t-23 7.5l-11 1q1 0 2.5 0.5t5.5 2.5t8.5 3t10 2t11 1t11 -2t10 -6t8 -10.5t5.5 -16.5q2 -13 -5 -25t-19 -19t-24.5 -12.5t-21.5 -7.5zM254 98l21 -15
q-8 -2 -23 -5t-50 -7.5t-59 -3.5q-59 4 -65 21q-3 8 13 14q6 2 14 4q-1 0 -3 -1t-4 -4t0 -6q3 -6 35.5 -8t65.5 1zM118 52l-1.5 -1.5t-1.5 -2.5t1 -4q1 -4 32 -7t50 -1l43 7l26 -16q-4 -2 -12.5 -5t-35 -8t-53.5 -3q-28 2 -45 6t-23 9.5t-6 11.5q1 6 7.5 9.5t12.5 3.5z
M348 -5q-5 -6 -24 -13t-64 -13.5t-103 -6.5q-61 0 -97.5 4.5t-48.5 11.5t-11 17q1 5 8 9t18 6t21 3t19.5 1.5l9.5 0.5l-36 -9q-12 -5 -10 -10q2 -8 58.5 -14.5t115.5 -3.5q39 2 71.5 6.5t49 9.5t19.5 8q3 2 3 5t-1 4l-1 1q2 -1 3.5 -2.5t3.5 -6t-4 -8.5zM299 -47
q16 3 29 7.5t21 8.5t14 7.5t8 5.5l2 2l-0.5 -1.5t-2 -4.5t-3.5 -6t-7 -7t-11.5 -7.5t-16.5 -7t-22 -5.5q-65 -10 -117.5 -9t-85.5 7l-33 6q169 -7 225 4z" />
    <glyph glyph-name="javaee" unicode="&#xe642;" horiz-adv-x="511" 
d="M134 176q-1 1 -2.5 2t-5 5t-7.5 8t-8.5 10t-8 12t-7 13.5t-5 14.5t-1 15t3.5 15q8 19 24.5 34.5t32.5 28t21 22.5q5 11 7 23.5t2 19.5l-1 7l2 -4t4 -10t4 -15.5t-1 -18t-7 -20.5q-9 -16 -38.5 -42.5t-29.5 -39.5q0 -7 1 -15t2.5 -15.5t4 -15l4.5 -13.5t4 -11t3 -7z
M214 316q-38 -32 -46 -49q-5 -8 -4 -16.5t4 -13t7.5 -13t6.5 -16.5q2 -11 -4 -23t-13 -18l-7 -7q1 2 2.5 6t3 12t0.5 13q-1 4 -7 12t-11 19.5t-5 27.5q0 9 7.5 19.5t18 18.5t21.5 14.5t18 9.5zM126 130q-33 -2 -55.5 1.5t-32 9.5t-7.5 14q2 7 17.5 11t30.5 4l14 1
q-1 0 -2 -0.5t-5 -1.5t-7.5 -2t-7.5 -2.5t-7 -3.5t-5 -4t-1.5 -4t7 -3.5t17.5 -2.5t25 -1t29.5 0.5t30.5 1.5t28.5 3t22.5 5q-3 -3 -9 -7t-29.5 -11t-53.5 -8zM223 92l12.5 10t19 20.5t9.5 24.5q-1 6 -5 10.5t-9 6.5t-10 3.5t-8 1.5h-3l5 2.5t11.5 4t15 1.5t13 -8t9.5 -21
q1 -11 -4.5 -21t-14.5 -16t-18 -10.5t-16 -6.5zM191 113l15 -12q-6 -2 -17 -4.5t-37.5 -6t-44.5 -2.5q-45 3 -49 18q-2 8 21 15q-1 -1 -2.5 -1.5t-3 -3t-0.5 -5.5q3 -5 27.5 -6.5t48.5 1.5zM88 75l-1 -7q1 -3 24 -5.5t37 -0.5l32 6l20 -14q-3 -1 -9.5 -4t-26 -6.5
t-39.5 -2.5q-58 4 -56 23q1 4 5.5 7t9.5 3zM261 27q-4 -5 -18 -11t-48 -11t-78 -5q-45 0 -72.5 3.5t-36.5 9.5t-8 14q1 5 6 8t13.5 4.5t15.5 2.5t14.5 1.5l7.5 0.5l-29 -8q-7 -4 -6 -8q2 -7 44.5 -12t86.5 -3q29 2 53.5 6t37 8t14.5 6t2 4.5v3.5l-1 1l2 -2t2.5 -5t-2.5 -8z
M224 -8q19 5 33 11.5t18 10.5l5 4q-1 -2 -2.5 -6.5t-13.5 -13.5t-32 -13q-48 -8 -87.5 -7t-64.5 6l-24 5q126 -6 168 3zM387 164h-63v-57h70v-18h-91v161h87v-18h-66v-51h62v-17h1zM504 164h-62v-57h69v-18h-90v161h87v-18h-66v-51h62v-17z" />
    <glyph glyph-name="javascript" unicode="&#xe643;" horiz-adv-x="501" 
d="M64 49h-64v76h64v-76zM232 40q0 -51 -27.5 -77.5t-75.5 -26.5q-8 0 -18 1q-11 1 -20 2v45h3q5 -1 12 -2.5t14 -1.5q20 0 33 5t19 16q6 9 8 24t2 36v244h-54v41h104v-306zM232 396h-57v52h57v-52zM385 41q-30 0 -56 8q-26 9 -43 17v57h3q6 -5 15 -11q9 -7 23 -13
q13 -6 28 -10.5t32 -4.5q12 0 25.5 2.5t20.5 7.5q9 6 13 13t4 20q0 18 -9.5 27.5t-34.5 15.5q-9 2 -25 5q-15 3 -29 7q-34 10 -49.5 30.5t-15.5 50.5q0 40 30.5 65t81.5 25q25 0 49 -6q26 -6 43 -15v-54h-3q-20 16 -43 24q-23 9 -47 9q-25 0 -42 -10.5t-17 -31.5
q0 -18 10 -27.5t32 -15.5q12 -3 25 -5q15 -3 29 -7q33 -8 50 -27q16 -19 16 -53q0 -19 -7.5 -36t-21.5 -29q-17 -14 -37 -21t-50 -7z" />
    <glyph glyph-name="java-spring" unicode="&#xe644;" 
d="M492 331q28 -96 16 -177q-15 -105 -99.5 -167t-188.5 -47q-79 12 -136 64.5t-76 129.5q-6 16 -8 47q0 14 1 27t2 19l2 6q25 136 152 192q71 31 146 17q72 -14 125 -63q8 -6 11.5 -5t8.5 9q3 4 6 9t6.5 11.5t6.5 11.5q24 -79 25 -84zM99.5 -2q9.5 0 16.5 7t7 16.5t-7 16
t-16.5 6.5t-16 -6.5t-6.5 -16t6.5 -16.5t16 -7zM494 144q13 55 1 123q-2 12 -29 123q-3 -5 -7 -10t-4 -6q-47 -70 -127 -91q-22 -5 -106 -13q-92 -9 -128 -74q-33 -59 -3 -114q10 -19 22.5 -24.5t34.5 -0.5q63 15 81 21q147 41 211 172q-15 -69 -77 -132q-58 -57 -152 -81
q-1 0 -36 -12l7 -4h45.5h45.5t45.5 1t45.5 3q103 10 130 119z" />
    <glyph glyph-name="jaxrs" unicode="&#xe645;" 
d="M0 169v46q12 1 18 4.5t10 11.5t6 20q1 9 1 32q0 37 3 51.5t10.5 23.5t21.5 14q10 3 31 3h9v-45q-18 0 -23 -2.5t-7.5 -7.5t-2.5 -17t-2 -45q0 -19 -3.5 -31t-8.5 -19.5t-16 -15.5q9 -6 15 -15t9.5 -21.5t4.5 -32.5q1 -32 1 -41q0 -12 2.5 -17t7.5 -7.5t23 -2.5v-46h-9
q-22 0 -33.5 4t-19 13.5t-10.5 23.5t-3 44q0 35 -2 46q-4 15 -11 21.5t-22 7.5zM512 169q-12 -1 -18 -4.5t-10 -11.5t-6 -20q-1 -9 -1 -32q0 -37 -3 -51.5t-10.5 -23.5t-22.5 -14q-9 -3 -30 -3h-9v46q17 0 22.5 2.5t8 7t2.5 16.5t1 44q1 20 4.5 32t9.5 20.5t15 14.5
q-12 9 -17 18q-8 13 -11 32q-1 13 -2 59q0 14 -2 19t-7.5 7.5t-23.5 2.5v45h9q21 0 32.5 -4t19.5 -13.5t11 -23.5t3 -44q0 -35 2 -46q4 -15 11 -21.5t22 -7.5v-46zM147 251h25v-75q0 -15 -3 -23q-4 -11 -13 -17t-24 -6q-18 0 -27.5 9.5t-9.5 29.5l23 2q0 -10 3 -14
q4 -7 12 -7t11 5t3 19v77zM305 132h-26l-11 27h-47l-10 -27h-26l47 119h25zM261 179l-17 44l-16 -44h33zM306 132l41 62l-37 57h28l24 -38l23 38h28l-37 -58l41 -61h-29l-27 41l-26 -41h-29z" />
    <glyph glyph-name="jquery" unicode="&#xe646;" 
d="M0 233q4 26 4 27q8 46 34 79q1 2 27 37v-2q-35 -80 -7 -168q39 -121 155 -178q99 -48 202 -11q49 17 82 59q1 1 2 1l-2 -5q-53 -108 -164 -130q-2 -1 -45 -5l-4 -1h-11q-8 1 -9 1q-48 6 -51 7q-72 20 -127 76q-67 68 -82 159q-1 1 -4 27v27zM194 421q-10 -39 -11 -41
q-9 -57 18 -111q52 -101 160 -117q74 -12 129 36q5 5 11 12l3.5 3.5t4 4.5t3.5 4l-2 -6q-36 -80 -119 -98q-44 -9 -87 0q-41 9 -79 41q-59 50 -73 121q-13 70 25 124q1 2 17 27zM495 307q-23 -44 -65 -54q-55 -12 -99 21t-53 81q-8 44 16 80q5 8 10 13l-5 -15
q-10 -42 13 -83q34 -61 103 -70q21 -2 39 2q19 4 41 25z" />
    <glyph glyph-name="key" unicode="&#xe647;" 
d="M512 221v-51h-29v-73h-44v73h-18v-51h-44v51h-139q-9 -41 -41.5 -68t-75.5 -27q-30 0 -52 11q-32 13 -50.5 43t-18.5 67v0v3v4q3 47 37.5 80t83.5 33q43 0 75.5 -26.5t41.5 -68.5h274zM117 261q-18 0 -33 -9.5t-24 -25.5t-9 -34t9 -34t25 -25.5t35.5 -9.5t35 9.5
t23.5 25.5t8 34q0 28 -20 48.5t-50 20.5z" />
    <glyph glyph-name="laptop" unicode="&#xe648;" 
d="M0 67h512v-48h-512v48zM151 260l36 -21l-12 -6l12 -21l-11 -7l-13 21l-12 -8v42zM42 365h428v-280h-42v238h-344v-238h-42v280z" />
    <glyph glyph-name="ldap" unicode="&#xe649;" 
d="M177 8v-29q-2 -7 -5 -11q-6 -7 -17 -12q-20 -11 -50 -13q-24 -2 -46 1q-22 4 -38 12q-9 4 -14 10q-3 3 -4.5 6t-2.5 7v29q2 -6 5 -10q7 -9 22 -15q17 -8 40 -10q30 -3 57 2q22 4 37 13q13 9 16 20zM161 70q13 8 16 20v-29q-2 -7 -5 -11q-6 -7 -17 -13q-20 -10 -50 -13
q-18 -1 -37 1q-23 2 -41 9q-9 5 -16 10q-9 7 -11 17v29q2 -6 5 -10q7 -9 22 -16q17 -7 40 -9q29 -4 57 2q22 4 37 13zM155.5 26.5q17.5 9.5 21.5 22.5v-29q-2 -7 -6 -11q-5 -7 -16 -13q-17 -8 -41 -12q-27 -3 -54 1q-23 3 -39 11q-8 5 -14 10q-5 6 -7 14v29q2 -6 5 -10
q7 -9 22 -15q21 -9 50 -11q18 -1 35 1q26 3 43.5 12.5zM512 106v-5q-2 -6 -5 -10q-6 -7 -16 -13q-17 -9 -41 -12q-28 -4 -55 0q-22 4 -38 12q-9 4 -14 10q-6 6 -8 14v3q2 7 5 11q6 8 17 13q19 10 47 13h2.5h1.5v56h-304v-56q11 -1 13 -1q23 -4 38 -12q11 -6 17 -13
q3 -4 5 -10v-5q-2 -6 -5 -10q-6 -7 -17 -13q-16 -9 -40 -12q-28 -4 -55 0q-23 4 -39 12q-8 4 -14 10q-5 6 -7 14v3q2 7 5 11q6 8 16 13q20 10 48 13h1.5h1.5v72v16h169v84h-187v128h378l-1 -128h-158v-84h167v-32v-56l12 -1q23 -4 39 -12q10 -6 16 -13q3 -4 5 -10zM208 358
h-117v-17h117v17zM208 387h-117v-18h117v18zM208 416h-117v-18h117v18zM496 -12q13 9 16 20v-29q-2 -7 -5 -11q-6 -7 -16 -12q-21 -11 -51 -13q-24 -2 -46 1q-22 4 -38 12q-8 4 -14 10q-5 5 -7 13v29q2 -6 5 -10q8 -9 23 -15q17 -8 39 -10q30 -3 58 2q22 4 36 13zM496 70
q13 8 16 20v-29q-2 -7 -5 -11q-6 -7 -16 -13q-21 -10 -51 -13q-18 -1 -36 1q-24 2 -42 9q-9 5 -16 10q-9 7 -11 17v29q2 -6 5 -10q7 -9 23 -16t39 -9q30 -4 58 2q22 4 36 13zM490.5 26.5q17.5 9.5 21.5 22.5v-29q-2 -7 -5 -11q-6 -7 -16 -13q-17 -8 -41 -12q-28 -3 -55 1
q-22 3 -38 11q-9 5 -14 10q-6 6 -8 14v29q2 -6 5 -10q8 -9 22 -15q21 -9 51 -11q17 -1 35 1q25 3 42.5 12.5z" />
    <glyph glyph-name="lifecycle" unicode="&#xe64a;" 
d="M267 448q102 -6 173.5 -79.5t71.5 -176.5q0 -56 -26 -113h-73l-36 62q11 22 11 51q0 53 -34.5 91t-86.5 41l33 58l-7 18zM413 57l59 -4q-37 -54 -93 -85.5t-123 -31.5t-123 31.5t-93 85.5l37 59h73q45 -52 106 -52q33 0 61 15t45 40l37 -58h14zM238 448l33 -59l-37 -65
q-47 -9 -78.5 -46t-31.5 -86q0 -27 11 -55h-69l-7 -11l-33 -47q-26 57 -26 113q0 100 69 176q70 74 169 80z" />
    <glyph glyph-name="sort-up" unicode="&#xe64b;" horiz-adv-x="322" 
d="M0 214l161 234l161 -234h-322z" />
    <glyph glyph-name="list" unicode="&#xe64c;" 
d="M72 155h-72v72h72v-72zM512 227v-72h-402v72h402zM72 401v-72h-72v72h72zM512 401v-72h-402v72h402zM72 53v-71h-72v71h72zM512 53v-71h-402v71h402z" />
    <glyph glyph-name="list-sort" unicode="&#xe64d;" horiz-adv-x="417" 
d="M280 99h137v-24h-171v17l1 1l131 199h-126v24h161v-18l-1 -1zM181 75l-32 82h-89l-32 -82h-28l3 6l94 236h17l1 -3l94 -239h-28zM140 180l-30 78q-2 6 -5 14q-2 -8 -5 -14l-30 -78h70zM216 448l73 -112h-147zM216 -64l-74 112h147z" />
    <glyph glyph-name="lock" unicode="&#xe64e;" horiz-adv-x="388" 
d="M330 236h-55v73q0 33 -24 56.5t-56.5 23.5t-56.5 -23.5t-24 -56.5v-73h-55v73q0 58 39 98.5t96 40.5t96.5 -40t39.5 -95v-77zM388 210v-274h-387l-1 274h388zM213 90q14 14 14 29q0 14 -9.5 23.5t-23.5 9.5q-9 0 -16.5 -4.5t-11.5 -12t-4 -16.5q0 -15 14 -29v-77h37v77z
" />
    <glyph glyph-name="mail" unicode="&#xe64f;" 
d="M512 349l-256 -128l-256 128v19h512v-19zM256 179l256 125v-288h-512v291z" />
    <glyph glyph-name="map-location" unicode="&#xe650;" 
d="M24 78q68 0 147 -58l-6 -77l-165 68l17 67h7zM352 92q81 -62 150 -80l10 -62l-157 52v5zM323 96l4 -90v-5l-136 -58l7 77zM261 148v-58l-59 -37l6 75zM479 160l18 -114q-26 1 -94 46q5 13 11.5 24t13 18t14.5 12t14 7.5t11.5 4t8 2t3.5 0.5zM135 257l55 -20v-3l-6 -70
q-22 11 -35.5 24.5t-17.5 24t-3 21.5t3 16t4 7zM71 281l36 -13q-8 -17 -8.5 -33.5t6 -30.5t15.5 -25.5t21 -21t21.5 -15.5t19.5 -11l-8 -80q-35 22 -63 34.5t-44 15.5t-26.5 2.5t-14.5 -3.5l-4 -3zM315 282l7 -153l-32 -20l-1 64q0 9 -5 12t-10 1l-5 -1l-58 -23l6 70l1 6z
M343 283l27 -9l16 -59l8 -32l21 27l29 40l23 -8l8 -51q-21 -3 -39 -12t-28.5 -20.5t-18 -22.5t-10.5 -18l-3 -7l-1 1q-19 14 -24 18zM430 406q-13 0 -22.5 -8t-12.5 -21q-2 -15 6 -26.5t22 -14.5q15 -2 26.5 6t14.5 22q2 15 -6 26.5t-22 14.5q-2 1 -6 1zM431 441q7 0 12 -1
q27 -5 43 -28.5t11 -50.5q-3 -19 -17 -33l-39 -54l-39 -54l-17 65l-17 64q-7 18 -3 38q3 23 22 38.5t44 15.5z" />
    <glyph glyph-name="menu" unicode="&#xe651;" 
d="M0 64h512v-85h-512v85zM0 235h512v-86h-512v86zM0 405h512v-85h-512v85z" />
    <glyph glyph-name="mobile" unicode="&#xe652;" horiz-adv-x="268" 
d="M163 -24v7q0 15 -10 15h-33q-11 0 -11 -15v-7q0 -14 11 -14h33q10 0 10 14zM183 410q9 0 9 9t-9 9h-91q-9 0 -9 -9t9 -9h91zM240 -64h-211q-12 3 -20.5 13t-8.5 23v443q0 9 4 16.5t11 12t14 4.5h211q11 0 19.5 -9.5t8.5 -23.5v-446q0 -14 -8.5 -23.5t-19.5 -9.5zM243 386
h-221v-363h221v363z" />
    <glyph glyph-name="computer" unicode="&#xe653;" 
d="M399 242h113v-205h-113v205zM400 347h112v-40h-112v40zM400 255v40h112v-40h-112zM105 66h158l18 -28q-58 1 -111 1q-80 0 -82 -2zM0 302h368v-228h-368v228zM44 118h280v140h-280v-140z" />
    <glyph glyph-name="ms-document" unicode="&#xe654;" 
d="M496 389q6 0 11 -5t5 -12v-360q0 -7 -5 -12t-11 -5h-181v59h138v39h-138v40h138v39h-138v40h138v39h-138v39h139v40h-139v59h181zM0 391l295 57v-512l-295 57v398zM216 92l41 200h-36l-21 -133q-2 -11 -2 -23h-1q-1 14 -2 22l-25 134h-38l-28 -133q-3 -13 -3 -23h-1
q0 14 -2 23l-21 133h-38l40 -200h40l27 128q2 9 3 23q0 -13 2 -23l26 -128h39z" />
    <glyph glyph-name="mute" unicode="&#xe655;" 
d="M512 196v-11v-11q0 -30 -15 -73q-15 -51 -51 -99l-33 18q4 7 15 18q31 50 40 92q7 22 7 73q-6 65 -29 106l29 26q17 -25 30 -77q2 -8 3.5 -23.5t3.5 -24.5v-14zM285 247l-168 -143h-117v179h132l153 128v-164zM168 71l117 99v-197zM443 192v-7q0 -72 -48 -143l-29 22
q1 4 3 7.5t4 6.5l4 6t3 6q17 28 22 58q4 18 4 51q0 19 -15 62l30 26q8 -13 14 -36q8 -37 8 -52v-7zM369 199q4 -3 4 -14q0 -43 -26 -88l-32 18q7 15 14 22q7 22 7 37q0 25 -3 36l29 26q7 -22 7 -37zM18 -20l-18 22l494 424l18 -22z" />
    <glyph glyph-name="nodejs" unicode="&#xe656;" horiz-adv-x="454" 
d="M222 -64q-5 1 -10.5 3.5t-9.5 5t-10 6.5t-10 5q-12 8 -39 24l-3 4l4 3q2 1 11 5t14 6.5t9 -0.5q7 -4 21.5 -12.5t22.5 -13.5q5 -3 11 0q93 54 182 106q6 3 6 9v211q0 6 -6 9q-98 57 -182 105q-6 3 -11 0q-89 -51 -183 -105q-5 -3 -5 -9v-211q0 -6 5 -9q8 -5 24 -14
t24 -14q14 -8 27 -5q18 4 19 21v7v204q0 7 1.5 8.5t8.5 1.5h9h9q7 0 7 -6v-3v-210q0 -8 -2 -17q-8 -39 -49 -41q-24 -1 -49 12q-17 10 -48 28q-16 9 -19 28l-1 4v220q3 23 25 36q37 21 180 104q22 12 45 -1q78 -45 183 -105q21 -13 21 -38v-211q0 -26 -22 -39
q-27 -15 -81.5 -46.5t-81.5 -47.5q-29 -16 -37 -18h-10zM359 80q-26 -12 -67 -13q-41 1 -65 11q-45 18 -46 65q-1 9 7 9h25q7 0 8 -7l1 -5q5 -25 29 -31q38 -9 79 0q7 1 14 6q17 10 11 30q-2 8 -10 11q-23 7 -35 9q-11 2 -33 5t-32 4q-9 2 -23 7q-35 15 -34 54q1 43 43 58
q57 20 114 -1q41 -15 45 -64q0 -7 -7 -7h-26q-6 0 -7 5q-7 35 -48 38q-31 2 -48 -3q-7 -2 -14 -6q-15 -9 -9 -27q2 -7 10 -9q22 -6 35 -9q11 -2 32 -5t31 -5q9 -2 22 -6q40 -15 37 -58q-2 -39 -39 -56z" />
    <glyph glyph-name="success" unicode="&#xe657;" 
d="M377 293l-160 -140l-76 88l-44 -37l114 -133l204 179zM256 448q106 0 181 -75t75 -181t-75 -181t-181 -75t-181 75t-75 181t75 181t181 75z" />
    <glyph glyph-name="paste" unicode="&#xe658;" horiz-adv-x="428" 
d="M350 347h78v-411h-428v411h79v20h54q0 22 11 40.5t29.5 29.5t40.5 11q33 0 57 -23.5t24 -57.5h2h53v-20zM181 367q1 -14 10.5 -23t22.5 -9q9 0 16.5 4t11.5 11.5t4 16.5t-4 16.5t-11.5 12t-16.5 4.5q-14 0 -23.5 -9.5t-9.5 -23.5zM373 -9v302h-23v-19h-271v19h-24v-302
h318z" />
    <glyph glyph-name="pdf" unicode="&#xe659;" 
d="M504 134q6 -7 7 -13q3 -24 -6 -38q-5 -8 -16 -11q-6 -2 -15 -2q-17 0 -40 5.5t-47.5 15t-46.5 22.5q-91 -14 -183 -44q-26 -44 -47 -72t-38.5 -42t-33.5 -14q-9 0 -17 5l-13 6q-11 6 -7 22q7 38 78 80q2 1 29 16l13 7q20 34 42 77l2 4q31 60 44 93l5 11q-31 117 -19 161
q5 20 31 20l8 -1q17 1 27 -20l1 -4q1 -4 2 -9q1 -10 0.5 -24.5t-2.5 -32t-4.5 -32t-3.5 -24.5l-2 -10q-1 -3 -2 -11q23 -64 68 -105q11 -11 37 -26q45 6 81 6q52 -1 68 -16zM31 -35q29 14 75 86q-10 -9 -13 -11q-23 -19 -40 -40t-22 -35zM231 426q-2 0 -3 -9t-1 -18v-9
q0 -39 8 -67q13 23 13 53q-1 20 -5.5 35t-11.5 15zM171 98q59 22 135 37l-10 8q-38 32 -64 79q-16 -42 -39 -84q-9 -17 -22 -40zM494 101q1 0 1.5 1.5t-0.5 3.5t-2.5 4t-5 3.5t-8.5 3.5q-18 4 -43 4q-15 0 -33 -1q51 -22 73 -22q13 0 18 3z" />
    <glyph glyph-name="pie-chart" unicode="&#xe65a;" horiz-adv-x="511" 
d="M511 176q-3 -60 -32 -110.5t-77 -83.5l-115 194h224zM275 447q94 -7 161.5 -73.5t74.5 -161.5h-237v225zM238 188l133 -225q-54 -27 -115 -27q-106 0 -181 75t-75 181q0 101 69 174.5t169 80.5v-259z" />
    <glyph glyph-name="chat" unicode="&#xe65b;" horiz-adv-x="511" 
d="M480 43l23 -60l-62 33q-32 17 -78 36q-11 -3 -23 -6q-17 -4 -34 -5l4 5q12 15 20 35l0.5 0.5l0.5 0.5q15 3 25 7l7 3l7 -3l4 -2.5t11.5 -6.5t16.5 -9t21.5 -11t24.5 -12q-1 3 -5.5 14.5t-6 16t-5 16.5t-3 15.5t1.5 12.5q4 11 15 24l4 5q25 34 25 73q0 62 -58.5 106
t-141.5 44q-75 0 -131 -37t-67 -91q-21 -9 -38 -22q0 78 69 132.5t167 54.5t167.5 -54.5t69.5 -132.5q0 -51 -34 -95l-4 -5q-7 -9 -8 -14q-1 -1 -1 -6q0 -23 16 -62zM313 148q11 -37 -5 -70q-4 -10 -12.5 -21t-16.5 -18q-28 -26 -71 -36q-23 -6 -48 -6q-27 0 -55 8h-1.5
h-1.5q-4 0 -7 -1q-6 -3 -13 -6l-14 -6t-13.5 -6t-14 -6t-13.5 -6q-1 0 -3 -0.5t-3 -1.5q1 4 3.5 11.5t4 13.5t2.5 11q6 29 -11 54q-23 32 -20 68.5t31 64.5l8 8q16 13 35 23q23 11 53 16q16 2 32 2q55 0 100 -29q41 -26 54 -67z" />
    <glyph glyph-name="publish" unicode="&#xe65c;" 
d="M61 230h25l426 144v-204v-208l-186 60v-41h-96q-48 0 -83 35t-35 80l-26 10h-25v124zM291 19v19l-141 48q5 -28 28 -47.5t52 -19.5h61zM0 96v144h42v-10v-124v-10h-42z" />
    <glyph glyph-name="redo" unicode="&#xe65d;" 
d="M390 381l122 -128l-123 -122l-32 32l68 68h-284q-43 4 -71 -22q-25 -22 -25 -69q0 -27 2 -41t10 -27t25.5 -18t47.5 -5h101v-46h-101q-38 0 -64 10t-38.5 22t-19 34t-7.5 35t-1 36q0 67 40 103q18 17 44.5 25.5t40.5 7.5t18 0h284l-70 73z" />
    <glyph glyph-name="register" unicode="&#xe65e;" 
d="M342 381l53 -53l50 -50q-35 -37 -75.5 -77t-89 -88t-75.5 -75l-58 58t-44 45q40 39 119.5 119.5t119.5 120.5zM407 448l105 -102q-52 -53 -53 -54q-15 15 -33 33.5t-36.5 37t-33.5 32.5zM65 0q14 85 20 123l102 -102zM464 -14l-1 198l49 1v-249h-512v512h255v-48
q-156 -1 -207 0l1 -414h415z" />
    <glyph glyph-name="download" unicode="&#xe65f;" horiz-adv-x="497" 
d="M255 21l-239 224h136v203h191v-201h138zM0 5h497v-69h-496z" />
    <glyph glyph-name="resource" unicode="&#xe660;" 
d="M0 142v97l53 7q7 25 21 48l-35 44l68 69l45 -35q23 13 50 20l6 56h97l7 -57q24 -7 46 -20l45 36l69 -69l-36 -45q12 -21 19 -45l56 -7l1 -97l-56 -6q-6 -26 -19 -49l35 -42l-68 -70l-43 34q-25 -15 -52 -22l-7 -53h-96l-6 53q-27 7 -51 21l-42 -33l-68 69l33 42
q-13 23 -19 48zM255.5 293q-41.5 0 -71 -29.5t-29.5 -71.5t29.5 -71.5t71 -29.5t71 29.5t29.5 71.5t-29.5 71.5t-71 29.5z" />
    <glyph glyph-name="rest-api" unicode="&#xe661;" 
d="M409 223v-59l-31 -5q-2 -4 -6.5 -14t-6.5 -14l20 -29l-42 -41l-26 22q-24 -10 -30 -11l-5 -33h-57l-2 35q-11 2 -28 11l-26 -22l-42 42l22 26q-4 5 -13 28l-33 5v56l33 5q3 13 11 28l-20 26l39 42l27 -20q5 2 15 6.5t15 6.5l5 31h59l2 -31q22 -8 30 -13l24 20l42 -42
l-20 -24q5 -11 13 -28zM256 95q41 0 69 28t28 69t-28 69t-69 28t-69 -28t-28 -69t28 -69t69 -28zM248 157h-15l-6 16h-28l-6 -16h-15l27 70h15zM222 185l-10 26l-9 -26h19zM255 157v70h23q13 0 17 -1q6 -2 10 -7t4 -14q0 -6 -2.5 -10.5t-6 -7t-7.5 -3.5q-5 -1 -14 -1h-10
v-26h-14zM269 215v-20h8q8 0 11 1t4.5 3.5t1.5 5.5q0 4 -2 6.5t-6 3.5h-10h-7zM320 157v70h14v-70h-14zM0 169v46q12 1 18 4.5t10 11.5t6 20q1 9 1 32q0 37 3 51.5t10.5 23.5t21.5 14q10 3 31 3h9v-45q-18 0 -23 -2.5t-7.5 -7.5t-2.5 -17t-2 -45q0 -19 -3.5 -31t-8.5 -19.5
t-16 -15.5q9 -6 15 -15t9.5 -21.5t4.5 -32.5q1 -32 1 -41q0 -12 2.5 -17t7.5 -7.5t23 -2.5v-46h-9q-22 0 -33.5 4t-19 13.5t-10.5 23.5t-3 44q0 35 -2 46q-4 15 -11 21.5t-22 7.5zM512 169q-12 -1 -18 -4.5t-10 -11.5t-6 -20q-1 -9 -1 -32q0 -37 -3 -51.5t-10.5 -23.5
t-22.5 -14q-9 -3 -30 -3h-9v46q17 0 22.5 2.5t8 7t2.5 16.5t1 44q1 20 4.5 32t9.5 20.5t15 14.5q-12 9 -17 18q-8 13 -11 32q-1 13 -2 59q0 14 -2 19t-7.5 7.5t-23.5 2.5v45h9q21 0 32.5 -4t19.5 -13.5t11 -23.5t3 -44q0 -35 2 -46q4 -15 11 -21.5t22 -7.5v-46z" />
    <glyph glyph-name="rest-service" unicode="&#xe662;" 
d="M0 169v46q12 1 18 4.5t10 11.5t6 20q1 9 1 32q0 37 3 51.5t10.5 23.5t21.5 14q10 3 31 3h9v-45q-18 0 -23 -2.5t-7.5 -7.5t-2.5 -17t-2 -45q0 -19 -3.5 -31t-8.5 -19.5t-16 -15.5q9 -6 15 -15t9.5 -21.5t4.5 -32.5q1 -32 1 -41q0 -12 2.5 -17t7.5 -7.5t23 -2.5v-46h-9
q-22 0 -33.5 4t-19 13.5t-10.5 23.5t-3 44q0 35 -2 46q-4 15 -11 21.5t-22 7.5zM512 169q-12 -1 -18 -4.5t-10 -11.5t-6 -20q-1 -9 -1 -32q0 -37 -3 -51.5t-10.5 -23.5t-22.5 -14q-9 -3 -30 -3h-9v46q17 0 22.5 2.5t8 7t2.5 16.5t1 44q1 20 4.5 32t9.5 20.5t15 14.5
q-12 9 -17 18q-8 13 -11 32q-1 13 -2 59q0 14 -2 19t-7.5 7.5t-23.5 2.5v45h9q21 0 32.5 -4t19.5 -13.5t11 -23.5t3 -44q0 -35 2 -46q4 -15 11 -21.5t22 -7.5v-46zM309 273v-36l-20 -3q-2 -9 -7 -18l12 -16l-25 -25l-16 13q-9 -5 -19 -8l-2 -20h-36l-3 21q-9 2 -17 7
l-16 -13l-26 25l14 17q-5 8 -7 16l-21 3v36l20 2q2 10 7 18l-13 16l25 26l16 -13q10 6 20 8l2 20h36l2 -20q10 -2 19 -7l15 12l25 -26l-12 -15q5 -9 7 -18zM214.5 217q15.5 0 26.5 11t11 26.5t-11 26t-26.5 10.5t-26.5 -10.5t-11 -26t11 -26.5t26.5 -11zM399 121v-27l-15 -2
q-2 -7 -6 -14l10 -12l-19 -19l-13 10q-7 -4 -14 -6l-2 -16h-27l-2 16q-7 2 -13 6l-13 -10l-19 19l10 13q-4 6 -6 12l-16 2v28l16 2q2 7 5 13l-9 12l19 20l12 -9q7 4 15 6l2 15h27l1 -15q8 -2 15 -6l12 9l19 -19l-10 -12q4 -7 6 -14zM326.5 79q11.5 0 20 8.5t8.5 20t-8.5 20
t-20 8.5t-20 -8.5t-8.5 -20t8.5 -20t20 -8.5zM227 114v-22l-12 -1q-1 -6 -4 -11l7 -10l-15 -15l-10 8q-5 -3 -11 -5l-1 -12h-22l-1 12q-6 2 -11 5l-10 -8l-15 15l8 10q-3 5 -4 10l-13 2v21l12 2q2 5 5 10l-8 10l15 15l10 -7q5 3 11 5l2 12h21l2 -12q6 -2 11 -5l9 7l15 -15
l-7 -9q3 -5 4 -11zM170 80q9 0 16 6.5t7 16t-7 16t-16 6.5t-15.5 -6.5t-6.5 -16t6.5 -16t15.5 -6.5z" />
    <glyph glyph-name="sort-down" unicode="&#xe663;" horiz-adv-x="322" 
d="M0 170h322l-161 -234z" />
    <glyph glyph-name="rules" unicode="&#xe664;" 
d="M488 43l24 -24l-61 -61l-24 24l10 9l-191 191l-3 -4q-6 -6 -13.5 -6t-12.5 6h-1l-44 -45q-1 -7 -6 -12l-8 -9q-6 -5 -13.5 -5t-12.5 5l-92 91q-5 5 -5 13t5 13l9 9q12 12 25 1l41 41q-6 5 -6 12.5t6 13.5l49 49q3 3 6 4t6.5 1t7 -1t6.5 -4l41 41q-11 13 1 25l8 8
q6 6 13.5 6t12.5 -6l92 -91q5 -5 5 -13t-5 -13l-9 -9q-5 -5 -12 -5l-45 -45q3 -3 4.5 -8t0 -9.5t-4.5 -8.5l-4 -4l191 -190zM0 17h289v-68h-289v68z" />
    <glyph glyph-name="save" unicode="&#xe665;" horiz-adv-x="514" 
d="M512 353q2 -60 2 -164.5t-1 -178.5l-1 -74h-512v512h117v-172h271v172h29l31 -31l35.5 -35.5zM446 -16v223h-384v-223h384zM358 305h-62v110h62v-110zM417 144h-326v30h326v-30zM417 82h-326v30h326v-30zM417 16h-326v30h326v-30z" />
    <glyph glyph-name="scep" unicode="&#xe666;" horiz-adv-x="446" 
d="M441 376q5 -1 5 -7q0 -74 -26 -162h-181v241zM389 121q-26 -56 -62 -105t-88 -80v237h170q-9 -27 -20 -52zM37 173h168v-237q-88 52 -148 185q-12 24 -20 52zM5 376l200 72v-241h-179q-26 88 -26 162q0 5 5 7z" />
    <glyph glyph-name="schema" unicode="&#xe667;" horiz-adv-x="497" 
d="M413 53h84v-117h-197v117h88v37h-275v-37h84v-117h-197v117h88v62h150v26h-92v135h198v-66l58 62l15 -14l-37 -40h99v175h-62v-22v-47h-337v124h337v-37h80v-212h-117l37 -44l-15 -14l-58 66v-66h-84v-26h153v-62z" />
    <glyph glyph-name="search" unicode="&#xe668;" 
d="M398 110l114 -114l-57 -60q-89 90 -115 116l-0.5 0.5l-0.5 0.5q-2 2 -7 -1q-7 -4 -26 -12l-3 -1l-2 -1q-40 -19 -82.5 -20.5t-80 13.5t-68 41.5t-49.5 65t-21 82.5q-3 94 60 161t154 67q130 0 191 -110q58 -101 0 -217q-4 -7 -7 -11zM221 66q69 2 117.5 51t48.5 118
q-2 45 -25 83t-61.5 59t-83.5 20q-72 -3 -120 -52t-45 -118q2 -69 51.5 -116.5t117.5 -44.5z" />
    <glyph glyph-name="security" unicode="&#xe669;" horiz-adv-x="446" 
d="M443 375q3 -4 3 -7q0 -114 -55 -242q-21 -53 -64.5 -106.5t-99.5 -83.5h-4h-4q-54 27 -96 78.5t-68 108.5q-55 115 -55 241q0 7 4 7l215 77h8zM302 113v111h-158v-111h158zM278 234v32q0 15 -7 27.5t-20 20t-28 7.5q-23 0 -39 -16.5t-16 -40.5v-30h23v30q0 14 9.5 23.5
t22.5 9.5t23 -9.5t10 -23.5v-30h22zM223 200q6 0 10 -3.5t4 -9.5t-6 -12v-31h-15v31q-6 6 -6 12q0 4 1.5 7t4.5 4.5t7 1.5z" />
    <glyph glyph-name="send" unicode="&#xe66a;" 
d="M402 316l-234 -197l-168 55l512 259l-95 -395l-198 59q129 150 183 219zM219 60l70 -18l-59 -91z" />
    <glyph glyph-name="sequence" unicode="&#xe66b;" 
d="M37 31h-37v289h37v-289zM106 335v-289h-37v289h37zM172 349v-289h-37v289h37zM241 368v-289h-36v289h36zM307 342v-289h-36v289h36zM377 331v-289h-37v289h37zM446 316v-289h-36v289h36zM512 305v-289h-37v289h37z" />
    <glyph glyph-name="server" unicode="&#xe66c;" horiz-adv-x="256" 
d="M0 -64v512h29h194h33v-512h-256zM29 203h198v26h-198v-26zM29 272v-21h198v21h-198zM227 400h-198v-21h198v21zM29 357v-22h198v22h-198zM29 313v-22h198v22h-198z" />
    <glyph glyph-name="service" unicode="&#xe66d;" horiz-adv-x="466" 
d="M147 60v59l32 4q4 15 12 29l-21 26l41 42l27 -21q15 8 30 12l4 34h59l4 -35q15 -4 28 -12l27 22l41 -41l-21 -28q7 -12 11 -27l34 -4v-58l-33 -4q-4 -16 -12 -29l21 -26l-41 -42l-26 20q-15 -9 -31 -13l-4 -32h-58l-4 32q-16 4 -30 13l-26 -20l-41 41l20 26q-8 14 -11 29
zM301 151q-25 0 -43 -17.5t-18 -43t18 -43t43 -17.5t42.5 17.5t17.5 43t-17.5 43t-42.5 17.5zM0 307v45l25 3q3 11 9 22l-16 20l31 32l21 -16q11 6 23 9l3 26h44l4 -26q11 -4 21 -9l21 16l31 -31l-16 -21q5 -10 8 -21l26 -3l1 -45l-26 -3q-3 -12 -9 -22l16 -20l-31 -32
l-20 16q-11 -7 -24 -10l-3 -25h-44l-3 25q-12 3 -23 9l-20 -15l-31 32l15 19q-6 11 -9 22zM118 376q-20 0 -33.5 -13.5t-13.5 -32.5t13.5 -32.5t33 -13.5t33 13.5t13.5 32.5q0 13 -6 23.5t-17 16.5t-23 6zM280 320v35l19 2q3 9 8 18l-13 16l25 25l16 -13q9 5 18 7l3 21h35
l2 -21q9 -3 17 -7l16 13l25 -25l-13 -17q5 -7 7 -16l21 -2v-35l-20 -3q-3 -9 -7 -17l12 -16l-24 -25l-16 12q-9 -5 -19 -8l-2 -19h-35l-2 19q-10 3 -19 8l-15 -12l-25 25l12 15q-4 8 -7 17zM373 374q-15 0 -26 -10.5t-11 -25.5t11 -26t26 -11t25.5 11t10.5 26
q0 10 -4.5 18.5t-13 13t-18.5 4.5z" />
    <glyph glyph-name="service-provider" unicode="&#xe66e;" horiz-adv-x="417" 
d="M80 313q0 51 33 84l15 -15q-26 -32 -26 -69q0 -39 22 -66l-14 -15q-30 35 -30 81zM77 207q-37 41 -37 109q0 64 40 110l15 -15q-36 -48 -36 -98q0 -53 32 -92zM66 433q-48 -53 -48 -124q0 -67 41 -113l-15 -15q-44 55 -44 128q0 82 51 139zM293 247q22 27 22 66
q0 44 -26 69l15 15q32 -33 32 -84q0 -46 -29 -81zM325 218q33 38 33 91q0 56 -36 99l14 14q41 -46 41 -109t-37 -110zM366 444q51 -62 51 -139q0 -73 -44 -128l-15 15q41 52 41 113q0 33 -13 66.5t-35 58.5zM232 199l113 -263h-48q-91 203 -94 223q-3 -20 -85 -223h-47
l106 263h19v38h-1h-6l-2 16q-7 2 -13 6l-8 -6l-5 -4l-19 19l3 5l7 8q-4 6 -6 13l-10 1q0 1 -1 1h-5v6v16v6l16 2q2 7 5 14l-2 3l-7 9l4 4l2 2l13 14l4 -4h1l5 -4l2 -2q7 4 15 6l1 9v1l1 5h6h16h6l1 -15q8 -2 15 -6l2 2l5 4l5 4l19 -20l-9 -12q3 -7 5 -14l15 -2v-5v-1v-15v-1
v-5l-5 -1v0l-10 -1q-2 -7 -6 -14l3 -4l7 -8l-19 -20l-5 3v1l-7 5l-1 1q-7 -4 -14 -6l-1 -10h-1v-6h-3v-38h18zM203 281q12 0 20.5 8.5t8.5 20.5t-8.5 20.5t-20.5 8.5t-20 -8.5t-8 -20.5t8 -20.5t20 -8.5z" />
    <glyph glyph-name="settings" unicode="&#xe66f;" 
d="M512 242v-97l-54 -7q-6 -25 -20 -49l35 -43l-69 -69l-44 35q-24 -13 -50 -20l-7 -56h-96l-7 57q-25 7 -46 20l-45 -36l-69 69l36 45q-12 21 -19 45l-57 7v96l55 7q7 26 19 48l-34 43l67 70l44 -34q25 15 52 22l7 53h96l6 -53q27 -7 51 -21l41 33l69 -69l-34 -42
q13 -23 20 -48zM256.5 91q41.5 0 71 29.5t29.5 71t-29.5 71t-71 29.5t-71 -29.5t-29.5 -71t29.5 -71t71 -29.5z" />
    <glyph glyph-name="share" unicode="&#xe670;" 
d="M424 111q37 0 62.5 -25.5t25.5 -62t-25.5 -62t-62 -25.5t-62 25.5t-25.5 62.5q0 3 1 12l-188 93q-26 -26 -62 -26q-37 0 -62.5 26t-25.5 62t25.5 62t62 26t62.5 -26l188 95q-1 8 -1 12q0 37 25.5 62.5t62 25.5t62 -25.5t25.5 -62.5q0 -23 -11.5 -43.5t-32 -32
t-44.5 -11.5q-36 0 -62 26l-188 -95q1 -9 1 -13t-1 -12l188 -94q26 26 62 26z" />
    <glyph glyph-name="sign-in" unicode="&#xe671;" horiz-adv-x="475" 
d="M245 170h-245v44h249l-70 69l33 30l117 -125l-121 -117l-29 33zM95 448h380v-512h-380v113h44v-69h293v424h-293v-73h-44v117z" />
    <glyph glyph-name="soap" unicode="&#xe672;" horiz-adv-x="443" 
d="M407 258h36v-157h-36v-165h-371v165h-3h-33v157h33h3v190h258l113 -109v-81zM63 421v-163h316v69h-93v94h-223zM310 135l-34 84h-18l-32 -84h18l7 19h33l7 -19h19zM221 177q0 20 -11 32q-12 12 -30 12q-10 0 -18 -4q-5 -2 -11 -7q-4 -5 -8 -12q-3 -8 -3 -21
q0 -20 10.5 -31.5t29.5 -11.5t30 11.5t11 31.5zM63 163l-2 -1q0 -6 2 -10q3 -6 8 -11q8 -7 24 -7q11 0 18 3q8 3 12 9t4 14q0 7 -4 13q-3 6 -9 8q-4 3 -18 7q-12 2 -16 5q-2 2 -2 5q0 4 3 5q3 3 11 3q7 0 11 -2q4 -4 4 -10l18 1q-1 11 -9 19q-9 7 -24 7q-9 0 -16 -3
q-7 -4 -11 -9q-3 -7 -3 -12q0 -10 7 -17q6 -5 20 -8q12 -3 13 -4q5 -1 6 -3q2 -3 2 -6q0 -4 -4 -8q-5 -3 -12.5 -3t-12.5 4q-4 3 -6 12zM379 -37v138h-316v-138h316zM380 180q3 6 3 13q0 8 -4 14l-1 3q-5 6 -12 8q-4 1 -20 1h-27v-84h16v32h12q11 0 17 1q4 1 9 4q4 3 6 7z
M358 20l-55 -30v17l37 18l-37 17v14l55 -25v-11zM363 200q2 -2 2 -7q0 -3 -1 -6q-3 -3 -6 -5q-3 -1 -13 -1h-10v24h9q10 0 12 -1q5 -1 7 -4zM256 168l11 31l11 -31h-22zM278 -13h-15l22 88h15zM256 -10l-55 30v11l55 25v-14l-37 -17l37 -18v-17zM180.5 206q10.5 0 16.5 -7
t6 -21.5t-6 -22.5q-6 -7 -16.5 -7t-17.5 7q-6 9 -6 22q0 15 6.5 22t17 7z" />
    <glyph glyph-name="sort" unicode="&#xe673;" horiz-adv-x="322" 
d="M0 214l161 234l161 -234h-322zM0 170h322l-161 -234z" />
    <glyph glyph-name="star" unicode="&#xe674;" 
d="M256 437l80 -161l176 -25l-128 -125l29 -179l-157 84l-157 -84l29 179l-128 125l176 25z" />
    <glyph glyph-name="statistics" unicode="&#xe675;" 
d="M512 -27v-37h-48h-54h-59h-55h-58h-55h-40h-55h-51h-37v37v475h37v-475h51v150h55v-150h40v259h55v-259h58v212h55v-212h59v259h54v-259h48zM208 316l-120 -109l-22 25l142 125l99 -77l114 88l-55 3l3 40l114 -3l-4 -117h-40l4 55l-136 -110z" />
    <glyph glyph-name="store" unicode="&#xe676;" 
d="M7 448l99 -29l18 -77l388 -40l-33 -154h-307l11 -44h278v-40h-315l-77 318l-69 22zM201 38q22 0 36.5 -14.5t14.5 -36.5t-14.5 -36.5t-36.5 -14.5t-36.5 14.5t-14.5 36.5t14.5 36.5t36.5 14.5zM406 38q19 0 33.5 -14.5t17.5 -36.5q0 -22 -14.5 -36.5t-36.5 -14.5
t-36.5 14.5t-14.5 36.5t14.5 36.5t36.5 14.5z" />
    <glyph glyph-name="subscribe" unicode="&#xe677;" 
d="M0 240v208h212q300 -293 300 -296q-1 -2 -23.5 -25t-54 -54.5t-63 -62.5t-53.5 -52l-22 -22q-296 300 -296 304zM80.5 335q13.5 0 23 9.5t9.5 23t-9.5 23t-23 9.5t-23 -9.5t-9.5 -23t9.5 -23t23 -9.5z" />
    <glyph glyph-name="fan" unicode="&#xe678;" 
d="M512 192q0 -71 -34.5 -130t-93.5 -92.5t-129 -33.5q-106 0 -180.5 75t-74.5 181q0 107 75.5 181.5t181.5 74.5t180.5 -75t74.5 -181zM256 420q-61 0 -113.5 -30.5t-83.5 -83t-31 -114.5q0 -94 67 -161t161 -66.5t161 66.5t67 161t-67.5 161.5t-160.5 66.5zM284 248
q-45 20 -72 -15q-2 5 -3.5 8.5t-4 7t-5 6.5t-5.5 5.5l-6 5t-6.5 5t-6.5 4t-6.5 4t-6.5 4.5q-30 22 -26 55q5 37 39 49q24 8 52.5 -1.5t44.5 -33.5q22 -33 16 -77q0 -1 -4 -27zM236 137l5 -2q-11 -23 -11 -24q-4 -17 -5 -40q-1 -22 -13.5 -37.5t-31.5 -19.5t-37.5 4t-29.5 28
q-17 32 -9 65t37 54q20 14 47 23q7 2 8 -5q2 -19 13 -31.5t27 -14.5zM289 141q40 31 23 71q5 -2 10.5 -2t10.5 0.5t9 1.5t9 3t8.5 4t8.5 4.5t8 3.5q32 15 57 3q30 -16 31 -54q1 -20 -16.5 -42.5t-41.5 -29.5q-46 -15 -93 18q-2 1 -24 19zM291 193q0 -15 -10.5 -25t-25.5 -10
q-14 0 -24.5 10.5t-10.5 25.5q0 14 11 24.5t25 10.5t25 -11t10 -25z" />
    <glyph glyph-name="swagger" unicode="&#xe679;" 
d="M231 447q90 9 166 -41q57 -38 88 -99q29 -59 27 -125q-3 -78 -49 -141q-49 -67 -127 -92q-73 -24 -148 -4q-77 21 -128 82q-48 57 -58 131q-13 96 41 177q32 47 82 77t106 35zM148 314q-15 -9 -16 -37q-2 -11 -1 -20t0 -20.5t-5 -19.5q-5 -9 -24 -10v-30q18 0 24 -11
q5 -11 5 -31.5t1 -25.5q2 -29 14 -38q11 -8 43 -8v26q-20 0 -25 7q-2 7 -3 16t-0.5 16.5t0.5 16.5q-3 22 -8 30q-6 10 -17 17q10 7 15 14q7 10 9 32q1 6 1 12.5t-0.5 12.5t0.5 12.5t3 12.5q4 6 25 6v27q-32 -1 -41 -7zM323 321v-27q18 0 22 -3q4 -2 5 -12q1 -6 1.5 -29.5
t5.5 -35.5q5 -13 19 -22q-15 -8 -21 -26q-3 -11 -3.5 -32t-1.5 -29q-1 -10 -5 -12q-6 -4 -22 -4v-26q32 0 43 8q14 11 14 41q1 6 1 17t0.5 19.5t3.5 15.5q5 13 25 13v30q-16 2 -20 5q-5 5 -8 19q-1 10 -1.5 28t-1.5 27q-3 22 -16 29q-9 5 -40 6zM187 208q-8 -2 -10.5 -11.5
t3.5 -15.5q6 -9 20 -6q8 3 10.5 11t-1.5 15q-3 6 -9.5 8t-12.5 -1zM249 208q-7 -3 -10 -10q-2 -6 -0.5 -11t6.5 -9t10 -3q8 -1 13.5 4.5t4.5 13.5q1 9 -7.5 14t-16.5 1zM311 208q-11 -4 -10 -15q-1 -8 4.5 -13.5t12.5 -4.5q10 -1 15.5 7.5t0.5 16.5q-2 7 -9 9.5t-14 -0.5z
" />
    <glyph glyph-name="tag" unicode="&#xe67a;" 
d="M337 353l175 -179l-172 -183l-193 183l-33 128l33 36q-8 4 -15 4q-22 -7 -33 -18q-11 -15 -11 -48q0 -18 7 -55q1 -3 2 -8.5t1.5 -19.5t-2.5 -25.5t-13 -21.5t-28 -13q-17 0 -29 9.5t-17 22t-7 25.5t-2 22v9v26v7q0 22 11 44q15 43 56 63t72 10q15 0 29 -7l26 25zM62 251
q-2 18 2.5 45.5t7.5 33.5q-30 -24 -46 -72q-7 -39 4 -70q0 -3 3 -8.5t8 -9.5t10 -4q11 0 19 15q1 5 1 10.5t-0.5 12t-0.5 10.5q-8 29 -8 37zM225.5 242q14.5 0 24.5 10.5t10 24.5q0 15 -11 26q1 -2 0 -4q1 -1 2 -6q1 -12 -4 -22l-1 -1q-6 -8 -11 -10q-8 -4 -15 -2
q-11 4 -19 16q12 -8 20 -7q6 1 10 10q2 14 -9 21q-3 2 -5 2q-6 3 -16 2q-5 -5 -8 -12q-2 -5 -2 -11l-1 1q0 -1 1 -1q-1 -1 -1 -2q0 -14 10.5 -24.5t25 -10.5z" />
    <glyph glyph-name="task" unicode="&#xe67b;" horiz-adv-x="370" 
d="M72 285h44l-8 -8h-28v-38h36v18l8 9v-36h-52v55zM97 257l29 30l5 -6l-34 -36l-14 14l6 6zM299 250h-138v18h138v-18zM72 128h52v-55h-52v55zM116 82v37h-36v-37h36zM299 91h-138v19h138v-19zM72 49h52v-55h-52v55zM116 3v37h-36v-37h36zM299 12h-138v19h138v-19zM72 206
h44l-8 -8h-28v-38h36v18l8 8v-35h-52v55zM97 178l29 30l5 -6l-34 -36l-14 14l6 6zM299 170h-138v19h138v-19zM258 448l112 -109v-403h-370v512h258zM343 -37v364h-94v94h-222v-458h316z" />
    <glyph glyph-name="text" unicode="&#xe67c;" horiz-adv-x="370" 
d="M293 150l-216 1l1 36h215v-37zM294 77h-218v37h218v-37zM294 4h-218v37h218v-37zM258 448l112 -109v-403h-370v512h258zM343 -37v364h-94v94h-222v-458h316z" />
    <glyph glyph-name="policy" unicode="&#xe67d;" horiz-adv-x="370" 
d="M62 172h147v-22h-147v22zM197 127q5 0 8.5 -3.5t3.5 -8.5t-3.5 -8t-8.5 -3q-2 0 -4 1t-3.5 2.5t-2.5 3.5t-1 4q0 3 1.5 6t4 4.5t5.5 1.5zM62 104v23h101v-23h-101zM140 241v-23h-78v23h78zM62 264v23h147v-23h-147zM247 51l13 -14l47 49l10 -10l-57 -58l-22 23zM220 -6
v89h72l-13 -14h-46v-61h59v29l13 14v-57h-85zM370 339v-403h-370v512h258zM343 327h-94v94h-222v-458h316v364z" />
    <glyph glyph-name="security-policy" unicode="&#xe67e;" horiz-adv-x="394" 
d="M245 267h-136v20h136v-20zM109 228v20h78v-20h-78zM226 141q0 10 9.5 10t9.5 -10t-9.5 -10t-9.5 10zM109 170v20h136v-20h-136zM258 34v76h61l-11 -12h-39v-52h50v25l11 12v-49h-72zM281 82l11 -11l40 41l8 -8l-48 -50l-19 20zM109 131v20h98v-20h-98zM51 37h31h60v-74
v-1v-26h-104h-15h-23v101h23h15h13zM82 -2q1 2 1 5t-1 5q-3 7 -11 7q-5 0 -8.5 -3.5t-3.5 -8.5q0 -6 6 -11v-28h13v28q3 4 4 6zM282 448l112 -109v-403h-233v26v1h205v364h-93v94h-222v-282q-15 -4 -26 -15v-1q-1 -1 -2 -1v326h259zM38 46h-15h-1v26q0 8 1 13v1q4 15 15 24
q5 6 13 9q9 5 20 5q6 0 11 -1q17 -4 28 -18t11 -31v-28h-20v26q-1 11 -5.5 18t-9.5 8l-4 2q-6 2 -11 2q-11 0 -20 -8v-1q-9 -8 -9 -21v-26h-4z" />
    <glyph glyph-name="throttling-policy" unicode="&#xe67f;" horiz-adv-x="452" 
d="M99 135q42 0 71 -29t29 -71v-8q-2 -14 -6 -24q-6 -19 -20 -34.5t-33 -24t-41 -8.5q-41 0 -70 29t-29 70q0 32 18.5 58t48.5 36q12 5 23 6h9zM41 69q-6 1 -7 -4q-2 -5 3 -7l16 -5h1q4 0 6 4q2 6 -4 7zM60 30q5 0 5 5q0 6 -5 6h-26q-6 0 -6 -6q0 -5 6 -5h26zM72 69q4 4 0 7
l-5 6l-8 8q-5 4 -9 0t0 -8l14 -13q2 -2 3 -2h1q2 0 4 2zM84 81q6 3 3 8l-7 14q-3 5 -8 3q-5 -3 -2 -8l7 -14q2 -4 5 -4q1 0 2 1zM165 64q-1 5 -7 4l-15 -5q-5 -2 -4 -7q2 -4 6 -4h2l15 5q5 1 3 7zM105 27v81q0 5 -5.5 5t-5.5 -5v-77v-1v-16q0 -6 5.5 -6t5.5 6v13zM117 79
q3 0 5 3l7 15q3 5 -2 7q-5 3 -8 -2l-7 -15q-2 -5 2 -7q2 -1 3 -1zM127 67q2 -1 4 -1t4 1l13 14q5 4 1 8t-8 0l-14 -14q-4 -4 0 -8zM166 29q5 0 5 5q0 6 -5 6h-27q-5 0 -5 -6q0 -5 5 -5h27zM81 153v295h258l113 -109v-403h-288q17 11 30 27h230v364h-93v94h-222v-267
q-13 3 -28 -1zM161 314h144v-26h-144v26zM160 273h111v-26h-111v26zM160 204h143v-26h-143v26zM161 138v26h110v-26h-110zM308 149q0 -5 -4 -8.5t-9 -3.5t-8.5 3.5t-3.5 8.5t3.5 8.5t8.5 3.5t9 -3.5t4 -8.5zM321 82h62l-12 -12h-39v-52h50v25l12 12v-49h-73v76zM356 43
l40 41l7 -8l-47 -50l-19 20l8 8z" />
    <glyph glyph-name="light" unicode="&#xe680;" horiz-adv-x="292" 
d="M219 -9q1 -17 -18 -19q-3 0 -5 -2q-12 -28 -41 -33l-1 -1h-16q-11 3 -11 4q-23 8 -33 32l-7 1q-16 4 -14 20q0 7 5.5 11.5t12.5 4.5h76h33q8 0 13.5 -5t5.5 -13zM278 239q-2 -4 -32 -66q-21 -43 -25 -70q0 -1 -2 -20h-146q0 6 -1 12t-2.5 12.5t-2.5 11.5t-3.5 12t-4 11
t-5 11.5t-5 10.5t-5.5 11.5t-5 10.5q-26 54 -32 73q-21 64 15.5 121.5t102.5 66.5q40 5 76 -9.5t60 -45.5t30 -70q6 -40 -13 -83zM94 399q-30 -16 -45.5 -46.5t-10.5 -63.5q2 -18 14 -45q6 -14 18.5 -38.5t21 -45.5t13.5 -41h82q6 29 25 67q29 62 31 66q12 26 13 47
q0 31 -14.5 56.5t-38 39.5t-52.5 16.5t-57 -12.5zM199 64q9 0 14.5 -5t5.5 -14q0 -7 -5.5 -12.5t-14.5 -5.5h-107q-8 0 -13.5 5.5t-5.5 12.5q0 8 5.5 13.5t13.5 5.5h54h53z" />
    <glyph glyph-name="tiles" unicode="&#xe681;" 
d="M384 64h128v-128h-128v128zM192 64h128v-128h-128v128zM0 64h128v-128h-128v128zM384 256h128v-128h-128v128zM192 256h128v-128h-128v128zM0 256h128v-128h-128v128zM384 448h128v-128h-128v128zM192 448h128v-128h-128v128zM0 448h128v-128h-128v128z" />
    <glyph glyph-name="uncheck" unicode="&#xe682;" 
d="M512 408l-216 -216l216 -216l-40 -40l-216 216l-216 -216l-40 40l216 216l-216 216l40 40l216 -216l216 216z" />
    <glyph glyph-name="undo" unicode="&#xe683;" 
d="M121 382l33 -33l-70 -73h285q70 0 103 -33q40 -40 40 -102q0 -23 -1 -36t-7.5 -35t-19 -33.5t-38 -21.5t-62.5 -10h-102v44h102q30 0 47 5t25 18.5t10 27t2 41.5q0 49 -25 69q-22 22 -74 22h-285l70 -69l-30 -33l-124 124z" />
    <glyph glyph-name="up" unicode="&#xe684;" 
d="M257 336l255 -248l-38 -40l-218 212l-219 -208l-37 40z" />
    <glyph glyph-name="down" unicode="&#xe685;" 
d="M255 47l-255 248l38 39l217 -211l220 208l37 -41z" />
    <glyph glyph-name="left" unicode="&#xe686;" horiz-adv-x="287" 
d="M0 193l248 255l39 -38l-212 -217l209 -220l-41 -37z" />
    <glyph glyph-name="right" unicode="&#xe687;" horiz-adv-x="287" 
d="M287 191l-247 -255l-40 38l212 217l-208 220l40 37z" />
    <glyph glyph-name="up-arrow" unicode="&#xe688;" horiz-adv-x="369" 
d="M37 238l-37 40l185 171l184 -178l-38 -39l-121 117l5 -413l-55 -1l-5 411z" />
    <glyph glyph-name="down-arrow" unicode="&#xe689;" horiz-adv-x="369" 
d="M332 146l37 -40l-184 -171l-185 177l38 40l121 -117l-5 413h55l5 -411z" />
    <glyph glyph-name="left-arrow" unicode="&#xe68a;" horiz-adv-x="513" 
d="M211 45l-40 -38l-171 185l177 185l40 -38l-117 -122l413 5v-55l-411 -5z" />
    <glyph glyph-name="right-arrow" unicode="&#xe68b;" horiz-adv-x="513" 
d="M302 339l41 38l170 -185l-177 -185l-40 38l117 122l-412 -5l-1 55l411 5z" />
    <glyph glyph-name="upload" unicode="&#xe68c;" horiz-adv-x="497" 
d="M481 137h-138v-201h-191v203h-136l239 224zM497 379h-497l1 69h496v-69z" />
    <glyph glyph-name="uri" unicode="&#xe68d;" 
d="M233 229q-6 21 -0.5 44.5t22.5 39.5l109 110q26 25 61.5 25t61.5 -25q25 -25 25 -61.5t-25 -61.5l-110 -109q-19 -19 -45.5 -24t-50.5 6l28 28q26 -3 44 14l109 110q15 15 15 36.5t-15 36.5t-36.5 15t-36.5 -15l-109 -109q-12 -12 -14 -28zM207 150q-14 14 -3 29q1 0 2 2
h1l59 60q6 6 15 5.5t15.5 -7t6 -15.5t-6.5 -16l-2 -2l-9 -9l-17 -16v-1l-30 -30q-7 -6 -16 -6t-15 6zM50 -14q15 -15 36.5 -15t36.5 15l110 109q18 18 14 44l28 28q11 -24 6 -50.5t-24 -45.5l-109 -110q-26 -25 -61.5 -25t-61.5 25q-25 26 -25 61.5t25 61.5l110 109
q36 36 84 22l-33 -33q-15 -2 -27 -13l-109 -110q-15 -15 -15 -36.5t15 -36.5z" />
    <glyph glyph-name="usb-drive" unicode="&#xe68e;" 
d="M391 258h121v-139h-121v139zM494 144v19h-26v-19h26zM494 214v18h-26v-18h26zM0 93v198h369v-198h-369zM68 218q-11 0 -19 -8t-8 -19t8 -19t19 -8q4 0 9 2t8 4.5t5.5 6.5t3.5 9h53q5 0 16 -8q7 -4 21 -21q14 -18 25 -18q1 -1 7.5 -0.5t11 0.5h5.5v-13h37v37h-37v-15h-26
q-11 8 -16 15q-12 15 -14 18q-2 2 -6 5h122v-11l18 8l18 8l-18 8l-18 8v-10h-164q4 3 12 11q7 8 12 14q5 5 10 8l4 2h26q4 -13 18 -13q7 0 12 5.5t5 12.5t-5 12.5t-12 5.5q-14 0 -18 -14h-28q-7 -1 -12 -5.5t-11.5 -12t-9.5 -10.5q-5 -5 -16 -13q-2 -1 -8 -3h-14
q-2 9 -9.5 15t-16.5 6z" />
    <glyph glyph-name="user" unicode="&#xe68f;" 
d="M501 24q11 -33 11 -70h-256h-256q0 39 11 66q14 41 37 55q11 8 26.5 15t26 11t31.5 11.5t29 10.5q15 5 33 18q11 5 11 22v7q-22 28 -36.5 72t-14.5 85q0 103 102 103t102 -103q0 -39 -12.5 -81.5t-34.5 -71.5v-15q1 -3 2 -7.5t2 -6.5t2.5 -4.5t4.5 -3.5q14 -10 29 -14
q68 -21 113 -48q25 -15 37 -51z" />
    <glyph glyph-name="bar-chart" unicode="&#xe690;" 
d="M512 -9v-55h-457h-55v55v457h55v-457h457zM172 183v-147h-71v147h71zM287 366v-330h-74v330h74zM399 219v-183h-73v183h73zM512 292v-256h-73v256h73z" />
    <glyph glyph-name="view" unicode="&#xe691;" 
d="M256 359q83 0 152 -44.5t103 -117.5q2 -5 0 -10q-34 -73 -103 -117.5t-152 -44.5t-152 44.5t-103 117.5q-2 5 0 10q34 73 103 117.5t152 44.5zM256 77q48 0 81.5 33.5t33.5 81.5t-33.5 81.5t-81.5 33.5t-81.5 -33.5t-33.5 -81.5q0 -23 9 -44.5t24.5 -37t37 -24.5t44.5 -9
zM256 266q31 0 52.5 -21.5t21.5 -52.5q0 -20 -10 -37t-27 -27t-37 -10q-31 0 -52.5 21.5t-21.5 52.5t21.5 52.5t52.5 21.5z" />
    <glyph glyph-name="refresh" unicode="&#xe692;" 
d="M512 192q0 -106 -75 -181t-181 -75t-181 75t-75 181q0 102 70.5 176.5t172.5 79.5h13v-39h-11q-57 -3 -104.5 -32.5t-74.5 -78.5t-27 -106q0 -90 63.5 -153.5t153.5 -63.5t153.5 63.5t63.5 153.5q0 89 -62 152l-7 -8l-33 -41l-58 149l159 -25l-36 -44v-1q76 -75 76 -182z
" />
    <glyph glyph-name="warning" unicode="&#xe693;" 
d="M256 398q-86 0 -146 -60t-60 -146t60 -146t146 -60t146 60t60 146t-60 146t-146 60zM256 448q106 0 181 -75t75 -181t-75 -181t-181 -75t-181 75t-75 181t75 181t181 75zM230 341h54v-174h-54v174zM229 113h55v-54h-55v54z" />
    <glyph glyph-name="ringing" unicode="&#xe694;" horiz-adv-x="490" 
d="M37 280q17 19 18 20q16 15 36 4q24 -14 41 -37q4 -7 8 -15q7 -20 -5 -39q0 -1 -13 -18q-26 59 -85 85zM283 40q64 -11 95 -59q3 -5 -2 -9q-28 -23 -60 -35q-4 -2 -8 0q-74 25 -141 73q-93 67 -149 150q-8 12 -16 25q-2 4 -2 8q5 35 25 70l1 2q43 -21 66 -55q4 -7 16 -27
q1 -1 1 -3t-1 -2q-12 -14 -1 -34t40 -46q40 -36 72 -54q13 -8 31 -14t29 9q1 2 4 1zM288.5 232.5q-39.5 37.5 -97.5 25.5q0 5 1 13.5t1 12.5q63 13 112.5 -32.5t40.5 -111.5q-4 -1 -8.5 -1.5t-9.5 -1t-9 -0.5q9 58 -30.5 95.5zM356 85q33 -11 54 -39q8 -12 3 -25
q-6 -16 -20 -29q-19 29 -42 44q-25 16 -57 22q24 33 53 29q5 -1 9 -2zM206 448q57 3 111.5 -19t93.5 -61t61 -95t17 -117q-13 -1 -26 -3q8 115 -68 193.5t-191 75.5q0 5 1 13.5t1 12.5zM199 364q93 9 161.5 -56.5t63.5 -158.5q-3 0 -11.5 -1.5t-13.5 -1.5q3 86 -56 142.5
t-146 49.5q2 16 2 26z" />
    <glyph glyph-name="block" unicode="&#xe695;" 
d="M256 448q107 0 181.5 -74.5t74.5 -181.5t-74.5 -181.5t-181.5 -74.5t-181.5 74.5t-74.5 181.5t74.5 181.5t181.5 74.5zM73 192q0 -59 33 -102l252 256q-46 29 -102 29q-77 0 -130 -53t-53 -130zM256 9q76 0 129.5 53.5t53.5 125.5q0 63 -33 106l-252 -256q46 -29 102 -29
z" />
    <glyph glyph-name="web-app" unicode="&#xe696;" 
d="M259 -55v219h253v-219h-253zM483 147v-14h20v20h-19h-1v-6zM458 153v-20h19v20h-19zM432 153v-20h20v20h-20zM268 121v-12h235v12h-235zM268 97v-138h235v138h-235zM441 19l22 -29l-12 -11l-24 31l-16 -11l-15 73l62 -42l-16 -10zM140 168q3 -35 14 -69q43 14 89 16v-25
q-41 -2 -80 -14q27 -64 80 -110v-29q-98 4 -168 74t-75 169v12.5v11.5q5 102 79 172.5t176 71.5h2q106 -1 180 -75q70 -70 75 -169v-3v-21h-373q0 -4 1 -12zM444 326q-30 -20 -63 -33q15 -42 17 -89h89q-4 67 -43 122zM428 346q-50 56 -123 72q7 -7 16 -18q33 -38 52 -83
q29 11 55 29zM268 423h1l-1 -1v1zM268 418v-124q43 2 81 14q-18 42 -47 76q-15 18 -34 34zM268 269v-65h105q-2 41 -15 81q-45 -14 -90 -16zM243 204v65q-44 2 -89 16q-11 -34 -14 -69q-1 -8 -1 -12h104zM243 423v-1v1zM243 418q-53 -46 -80 -110q38 -12 80 -14v124z
M207 418q-73 -16 -123 -72q28 -18 55 -29q24 57 68 101zM68 326q-39 -54 -43 -122h89q0 5 1 14q3 39 15 75q-30 12 -62 33zM68 58q30 20 62 33q-12 36 -15 75q-1 9 -1 14h-89q4 -68 43 -122zM207 -34q-44 44 -68 101q-29 -11 -55 -29q49 -56 123 -72z" />
    <glyph glyph-name="globe" unicode="&#xe697;" 
d="M512 192v-1v-8v-2v-2v0q-5 -98 -75 -168q-74 -74 -180 -75h-2q-102 1 -176 71.5t-79 171.5v2v2v8v1v1v8v2v2q5 101 79 171.5t176 71.5h2q106 -1 180 -75q70 -70 75 -168v0v-2v-2v-8v-1zM139 205h104v64q-45 2 -89 16q-11 -34 -14 -69q0 -6 -1 -11zM444 326
q-30 -20 -62 -33q14 -43 16 -88h89q-4 66 -43 121zM428 346q-50 56 -123 72q9 -9 16 -18q32 -38 52 -83q29 11 55 29zM268 423h1l-1 -1v1zM268 418v-124q42 2 81 14q-17 41 -47 76q-15 18 -34 34zM268 269v-64h105q-2 41 -15 80q-44 -14 -90 -16zM243 423v-1v1zM243 418
q-53 -46 -80 -110q39 -12 80 -14v124zM206 418q-72 -16 -122 -72q26 -18 55 -29q24 56 67 101zM68 326q-39 -55 -43 -121h89q1 10 1 13q4 39 15 75q-32 13 -62 33zM68 58q29 20 62 33q-11 36 -15 75q0 3 -1 13h-89q4 -66 43 -121zM84 38q50 -56 122 -72q-43 45 -67 101
q-29 -11 -55 -29zM243 -39v1v-1zM243 -34v124q-41 -2 -80 -14q27 -64 80 -110zM243 115v64h-104q1 -5 1 -11q3 -35 14 -69q44 14 89 16zM268 -39v1l1 -1h-1zM268 -34q19 16 34 34q30 35 47 76q-39 12 -81 14v-124zM268 115q46 -2 90 -16q13 39 15 80h-105v-64zM305 -34
q73 16 123 72q-26 18 -55 29q-20 -45 -52 -83q-7 -9 -16 -18zM444 58q39 55 43 121h-89q-2 -45 -16 -88q32 -13 62 -33z" />
    <glyph glyph-name="web-clip" unicode="&#xe698;" 
d="M414 204l7 36h22l-9 -36l-6 -24l-10 -36h-23v2l-8 39q-3 16 -4 30h-1q-3 -21 -5 -30l-6 -24l-3 -17h-24l-9 36l-5 24l-9 36h23l7 -36v-4q1 -4 4 -20q1 -5 2 -13l2 13q2 5 2.5 9t1 6t1 3.5t0.5 2.5l1 3l5 27l2 9h22h1l7 -36l1 -4q1 -7 3 -20q0 -2 0.5 -6t1.5 -7q0 5 2 13
q1 6 2 11t1 7t1 3v3zM491 90q21 -26 21 -59q0 -26 -12.5 -48t-34.5 -34.5t-48 -12.5q-33 0 -59 21q-12 10 -18 20q-5 7 -9 16q-8 17 -8 35v3q0 26 13 48q7 11 18 21q5 5 6 5q14 11 31 16q13 4 26 4q29 0 54 -16q11 -8 20 -19zM477 31l-16 8l-72 40v-19v-56v-22l42 23z
M288 204l7 36h22l-9 -36l-7 -24l-9 -36h-23l-1 2l-7 39q-3 16 -5 30q-4 -21 -5 -30l-7 -31l-3 -10h-23l-9 36l-6 24l-8 36h23l7 -36v-4q1 -4 4 -20q1 -5 2 -13l2 13q2 6 3 11t1 7v3l1 3l6 26l2 10h22l7 -36l1 -4q2 -11 3 -20q2 -9 2 -13h1q0 5 1 13q1 3 2 10t2 11zM161 201
l1 3l7 36h22l-9 -36l-7 -24l-9 -36h-23l-8 41q-3 16 -5 30q-4 -21 -6 -30l-7 -35l-2 -6h-24l-8 36l-6 24l-8 36h23l6 -36l1 -4q1 -4 4 -20q1 -5 2 -13l2 13q1 6 2 11t1.5 7t0.5 3l1 3l3 15l5 21h22l1 -2l6 -34l1 -4q2 -11 3 -20q2 -8 2 -13q1 5 2 13q1 3 2 10t2 11zM322 -29
q5 -9 16 -21l-1 -0.5t-1.5 -1t-2.5 -0.5q-7 -2 -19 -5q-1 0 -2.5 -0.5t-3.5 -1.5q-5 -1 -16 -2q-2 0 -5 -0.5t-4 -1.5q-8 0 -24 -1h-2h-1h-1q-13 0 -29 2q-88 10 -151 73q-58 58 -71 140q-1 3 -1 6q-3 19 -3 34q0 13 1 26q0 1 0.5 2.5t0.5 3t1 3.5q2 15 2 16q1 5 2 7l4 18
q0 1 2 4q3 11 7 19v2q20 45 54 80q43 44 103 63q1 1 2 1q7 2 19 5q1 0 2.5 0.5t3.5 1.5q5 1 16 2q2 0 5 0.5t4 1.5q8 0 24 1h2h1h1q13 0 29 -2q88 -10 151 -73q58 -58 71 -140q1 -3 1 -6q3 -19 3 -34q0 -13 -1 -26q0 -1 -0.5 -4t-1.5 -5q-2 -15 -2 -16q-1 -5 -2 -7l-4 -18
q0 -1 -2 -4q0 -1 -0.5 -2l-0.5 -1q-9 9 -21 16v1q8 29 10 53h-29v24h29q-4 67 -43 122q-30 -20 -63 -33q6 -16 10 -34h-26q-4 17 -7 26q-1 0 -13 -3v-1q-5 -1 -17 -3q-11 -3 -18 -4q-21 -4 -42 -5v-10h-24v10q-41 2 -84 14q-5 1 -6 2q-3 -9 -7 -26h-26q4 19 9 34
q-32 13 -62 33q-15 -21 -26 -47q0 -2 -1.5 -5.5t-2.5 -4.5l-3 -12q-8 -29 -10 -53h29v-24h-29q1 -14 4 -30q1 -5 2 -7q9 -46 37 -85q30 20 63 33q-6 16 -9 33h25q2 -8 7 -25q1 0 13 3v1q5 1 17 3q11 3 18 4q21 4 42 5v9h24v-9q32 -1 65 -9q-9 -10 -15 -22q-6 1 -9 2
q-5 0 -16 1q-19 3 -25 3v-124q23 19 39 40q3 -15 11 -28q-3 -4 -9 -11q8 3 13 4zM305 418q8 -7 16 -18q32 -38 52 -83q30 12 55 29q-50 56 -123 72zM268 294q16 1 38 4q2 1 7 2t7 1q17 3 29 7q-18 42 -47 76q-16 20 -34 34v-124zM163 308q16 -5 40 -10q5 0 16 -1
q19 -3 25 -3v124q-54 -46 -81 -110zM84 346q3 -2 7 -4q25 -16 48 -25q23 57 64 100q-19 -5 -31 -10q-1 0 -2 -0.5l-1 -0.5q-15 -6 -29 -14q-5 -4 -7 -5q-12 -8 -21 -15q-1 -1 -4 -3.5t-5 -3.5zM207 -34q-8 7 -16 18q-32 38 -52 83q-30 -12 -55 -29q50 -56 123 -72zM244 90
q-16 -1 -38 -4q-2 -1 -4.5 -1.5l-5 -1t-4.5 -0.5q-17 -3 -29 -7q18 -42 47 -76q16 -20 34 -34v124z" />
    <glyph glyph-name="proxy" unicode="&#xe699;" 
d="M142 89v32q0 6 -3 13q-6 16 -23 20q-4 1 -9 1q-14 0 -24.5 -10t-10.5 -24v-32h-23v2v30q0 21 12.5 37.5t32.5 21.5q5 1 13 1q19 0 33 -10q26 -18 26 -49v-19v-14h-24zM170 78h21v-56v-41v-11v-11h-41h-127v119h4h28h47h68zM115 9v17q6 5 6 12q0 6 -4 10t-10 4
q-8 0 -12 -7q-2 -3 -2 -7q0 -7 6 -12v-4v-30h16v17zM512 193q1 -106 -74 -181q-36 -36 -82.5 -56t-98.5 -20h-1q-13 0 -28 2q-4 0 -14 2v19v34q3 -4 16 -18l2 -1q5 -5 11 -10l1 -1v127q-3 0 -8 -1q-11 -1 -17 -2h-2.5h-2.5v14h-23h-2v7q9 2 25 4t30 3v65h-79q-24 24 -58 24
t-58 -24h-24q1 -12 2 -18q1 -2 1.5 -7t1.5 -7v-1q-3 -7 -3 -14q-1 -6 -1 -12v-20h-3h-6q0 1 -6 18q-1 4 -5 17q0 2 -0.5 4t-0.5 3.5t-0.5 3t-1 3.5t-0.5 4q-2 9 -2 14q-1 11 -1 23q-1 106 74 181t181 76h2q105 -1 180 -75q74 -74 75 -180zM243 423l1 -1v1h-1zM163 308
q38 -12 81 -14v124q-54 -46 -81 -110zM84 346q26 -18 55 -29q24 57 68 101q-73 -16 -123 -72zM131 293q-32 13 -63 33q-39 -54 -43 -122h89q0 5 1 14q4 39 16 75zM244 204v65q-45 2 -90 16q-11 -34 -14 -69q-1 -8 -1 -12h105zM381 293q15 -43 17 -89h89q-4 67 -43 122
q-30 -20 -63 -33zM305 418q8 -7 16 -18q32 -38 52 -83q30 12 55 29q-50 56 -123 72zM268 422l1 1h-1v-1zM268 294q43 2 81 14q-18 42 -47 76q-15 18 -34 34v-124zM268 204h105q-2 41 -15 81q-45 -14 -90 -16v-65zM268 115q45 -2 91 -16q10 34 13 67q1 8 1 14h-105v-65z
M350 76q-37 12 -82 14v-127q55 47 82 113zM428 38q-25 17 -54 29q-23 -56 -65 -100q64 15 111 63l4 4zM487 180h-89q0 -3 -0.5 -8.5t-0.5 -8.5q-4 -38 -15 -72q32 -13 62 -33q39 54 43 122z" />
    <glyph glyph-name="web-service" unicode="&#xe69a;" 
d="M486 80q1 -2 3 -8l23 -3v-42l-23 -2q-4 -12 -10 -22l15 -19l-29 -30l-20 15q-10 -6 -21 -8l-3 -25h-43l-3 25q-1 0 -2.5 0.5t-2.5 1.5q-7 2 -15 7l-20 -16l-16 16l-4 4l-10 10l16 20q-2 3 -5 10q-1 2 -2 5t-1 4l-25 3v43l24 2q2 7 4 13q2 4 4 9l-15 18v1l30 30l19 -15
q7 4 14 6q4 3 9 4l3 23h16h26l2 -23q13 -4 23 -9l18 14l13 -13l17 -17l-15 -19q4 -7 6 -13zM358 35q7 -25 33 -31h9q18 0 31 13t13 31q0 6 -1 11q-2 7 -6 13t-9.5 10.5t-12.5 7t-15 2.5t-15 -3q-13 -4 -21 -15.5t-8 -25.5q0 -7 2 -13zM285 -22l8 -7l27 -27q-32 -8 -63 -8h-1
q-13 0 -28 2q-13 1 -20 3q-1 0 -3 0.5l-4 1t-4 0.5q-71 16 -123 69q-44 45 -63 107q-1 4 -5 17q0 2 -0.5 4t-0.5 3.5t-0.5 3t-1 3.5t-0.5 4q-2 9 -2 14q-1 11 -1 23q-1 106 74 181t181 76h2q105 -1 180 -75q74 -74 75 -180q0 -34 -8 -64l-21 20q3 13 4 31h-219v-65v-25v-127
q8 7 17 15zM444 326q-30 -20 -63 -33q15 -43 17 -89h89q-4 67 -43 122zM428 346q-50 56 -123 72q8 -7 16 -18q32 -38 52 -83q30 12 55 29zM268 423h1l-1 -1v1zM268 418v-124q43 2 81 14q-18 42 -47 76q-15 18 -34 34zM268 269v-65h105q-2 41 -15 81q-45 -14 -90 -16z
M244 423v-1l-1 1h1zM214 112q16 2 30 3v65h-105q0 -8 2 -23v-2.5t1 -1.5q0 -11 4 -24l-1 1q4 -18 8 -31q9 3 14 4l15 3q10 3 32 6zM139 204h105v65q-45 2 -90 16q-11 -34 -14 -69q-1 -8 -1 -12zM244 418q-54 -46 -81 -110q38 -12 81 -14v124zM207 418q-73 -16 -123 -72
q26 -18 55 -29q24 57 68 101zM68 326q-39 -54 -43 -122h89q0 5 1 14q4 39 16 75q-32 13 -63 33zM68 58q30 20 62 33q-9 28 -13 55q-1 8 -2 17v1q-1 8 -1 16h-89q1 -12 2 -18q1 -2 1.5 -7t1.5 -7q9 -51 38 -90zM197 -31q2 -1 6 -2q-2 2 -6 7q-37 40 -59 93q-29 -12 -54 -29
l4 -4l4 -4q45 -46 105 -61zM215 -9q10 -11 15 -16l2 -1l1.5 -1t1.5 -2l1 -1q1 0 1 -1q1 -1 3 -2.5t3 -2.5l1 -1v127q-3 0 -8 -1q-11 -1 -17 -2q-11 -1 -30 -4q-2 -1 -6.5 -2t-6.5 -2q-9 -2 -14 -3q14 -33 35 -63q7 -8 13 -16q2 -2 5 -6z" />
    <glyph glyph-name="website" unicode="&#xe69b;" 
d="M421 240h22l-9 -36l-6 -24l-10 -36h-23v2l-8 39q-3 16 -4 30h-1q-3 -21 -5 -30l-6 -24l-3 -17h-24l-9 36l-5 24l-9 36h23l7 -36v-4q1 -4 4 -20q1 -5 2 -13l2 13q2 5 2.5 9t1 6t1 3.5t0.5 2.5l1 3l5 27l2 9h22h1l7 -36l1 -4q1 -7 3 -20q0 -2 0.5 -6t1.5 -7q0 5 2 13
q1 6 2 11t1 7t1 3v3zM288 204l7 36h22l-9 -36l-7 -24l-9 -36h-23l-1 2l-7 39q-3 16 -5 30q-4 -21 -5 -30l-7 -31l-3 -10h-23l-9 36l-6 24l-8 36h23l7 -36v-4q1 -4 4 -20q1 -5 2 -13l2 13q2 6 3 11t1 7v3l1 3l6 26l2 10h22l7 -36l1 -4q2 -11 3 -20q2 -9 2 -13h1q0 5 1 13
q1 3 2 10t2 11zM162 204l7 36h22l-9 -36l-7 -24l-9 -36h-23l-8 41q-3 16 -5 30q-4 -21 -6 -30l-7 -35l-2 -6h-24l-8 36l-6 24l-8 36h23l6 -36l1 -4q1 -4 4 -20q1 -5 2 -13l2 13q1 6 2 11t1.5 7t0.5 3l1 3l3 15l5 21h22l1 -2l6 -34l1 -4q2 -11 3 -20q2 -8 2 -13q1 5 2 13
q1 3 2 10t2 11zM512 193q0 -13 -1 -26q0 -1 -0.5 -4t-1.5 -5q-2 -15 -2 -16q-1 -5 -2 -7l-4 -18q0 -1 -2 -4q-3 -10 -7 -19v-2q-20 -45 -54 -80q-43 -44 -103 -63q0 -1 -2 -1q-7 -2 -19 -5q-1 0 -2.5 -0.5t-3.5 -1.5q-5 -1 -16 -2q-2 0 -5 -0.5t-4 -1.5q-8 0 -24 -1h-2h-1
h-1q-13 0 -29 2q-88 10 -151 73q-58 58 -71 140q-1 3 -1 6q-3 19 -3 34q0 13 1 26q0 1 0.5 2.5t0.5 3t1 3.5q2 15 2 16q1 5 2 7l4 18q0 1 2 4q3 11 7 19v2q20 45 54 80q43 44 103 63q1 1 2 1q7 2 19 5q1 0 2.5 0.5t3.5 1.5q5 1 16 2q2 0 5 0.5t4 1.5q8 0 24 1h2h1h1
q13 0 29 -2q88 -10 151 -73q58 -58 71 -140q1 -3 1 -6q3 -19 3 -34zM305 418q8 -7 16 -18q32 -38 52 -83q30 12 55 29q-50 56 -123 72zM268 294q16 1 38 4q2 1 7 2t7 1q17 3 29 7q-18 42 -47 76q-16 20 -34 34v-124zM163 308q16 -5 40 -10q5 0 16 -1q19 -3 25 -3v124
q-54 -46 -81 -110zM84 346q3 -2 7 -4q25 -16 48 -25q23 57 64 100q-19 -5 -31 -10q-1 0 -2 -0.5l-1 -0.5q-15 -6 -29 -14q-5 -4 -7 -5q-12 -8 -21 -15q-1 -1 -4 -3.5t-5 -3.5zM207 -34q-8 7 -16 18q-32 38 -52 83q-30 -12 -55 -29q50 -56 123 -72zM244 90q-16 -1 -38 -4
q-2 -1 -4.5 -1.5l-5 -1t-4.5 -0.5q-17 -3 -29 -7q18 -42 47 -76q16 -20 34 -34v124zM349 76q-16 5 -40 10q-5 0 -16 1q-19 3 -25 3v-124q54 46 81 110zM428 38q-4 3 -7 5q-23 14 -48 24q-23 -57 -64 -100q19 5 31 10q1 0 2 0.5l1 0.5q15 6 29 14q5 4 7 5q12 7 21 14
q0 1 3.5 4t5.5 4q13 12 19 19zM458 180v24h29q-4 67 -43 122q-30 -20 -63 -33q6 -16 10 -34h-26q-4 17 -7 26q-1 0 -13 -3v-1q-5 -1 -17 -3q-11 -3 -18 -4q-21 -4 -42 -5v-10h-24v10q-41 2 -84 14q-5 1 -6 2q-3 -9 -7 -26h-26q4 19 9 34q-32 13 -62 33q-15 -21 -26 -47
q0 -2 -1.5 -5.5t-2.5 -4.5l-3 -12q-8 -29 -10 -53h29v-24h-29q1 -14 4 -30q1 -5 2 -7q9 -46 37 -85q30 20 63 33q-6 16 -9 33h25q2 -8 7 -25q1 0 13 3v1q5 1 17 3q11 3 18 4q21 4 42 5v9h24v-9q41 -2 84 -14q5 -1 6 -2q5 17 7 25h26q-4 -19 -9 -33q17 -7 31 -15
q15 -8 31 -18q15 20 25 47l2 4l3 6l3 12q8 29 10 53h-29z" />
    <glyph glyph-name="xml" unicode="&#xe69c;" horiz-adv-x="443" 
d="M407 258h36v-157h-36v-165h-371v165h-3h-33v157h33h3v190h258l113 -109v-81zM379 -37v138h-316v-138h316zM102 219l26 -40l-29 -44h20l19 29l18 -29h21l-29 43l26 41h-19l-17 -27l-17 27h-19zM234 135l17 66v-66h15v84h-25l-15 -57l-15 57h-26v-84h16v66l17 -66h16z
M342 149h-42v69h-17v-83h59v14zM379 258v69h-93v94h-223v-163h316zM358 20l-55 -30v17l37 18l-37 17v14l55 -25v-11zM278 -13h-15l22 88h15zM256 -10l-55 30v11l55 25v-14l-37 -17l37 -18v-17z" />
    <glyph glyph-name="html" unicode="&#xe69d;" horiz-adv-x="443" 
d="M406 258h37v-157h-37v-165h-369v165h-4h-33v157h29h4v190h260l113 -110v-80zM62 419v-165h318v70h-95v95h-223zM271 137l18 62v-66h15v85h-26l-15 -59l-14 59h-26v-85h15v66l18 -62h15zM146 203h22v-70h19v70h25v15h-66v-15zM84 174v-4h33v-37h18v85h-18v-33h-33v33h-18
v-81h18v37zM377 -35v136h-315v-136h315zM380 137h4v11h-4h-40v70h-18v-81h58zM355 20l-55 -29v18l36 18l-36 19v14l55 -25v-15zM274 -13h-14l22 88h14zM252 -9l-55 29v11l55 26v-15l-36 -18l36 -19v-14z" />
    <glyph glyph-name="war" unicode="&#xe69e;" horiz-adv-x="373" 
d="M260 448l113 -110v-402h-373v512h260zM344 -38v365h-92v92h-125v-5h17v-18h-17v-19h17v-17h-17v-20h17v-17h-17v-19h17v-18h-17v-19h17v-17h-17v-19h17v-18h-17v-36q16 -4 26 -16.5t10 -28.5q0 -19 -13.5 -32.5t-33 -13.5t-33 13.5t-13.5 32.5q0 12 5 21.5t14 15.5t20 8
v18h-17v17h17v20h-17v17h17v19h-17v18h17v19h-17v17h17v20h-17v17h17v19h-17v18h17v23h-80v-457h315zM116 159q-5 0 -10 -2t-8.5 -5.5t-5.5 -8.5t-2 -11q0 -11 7.5 -18.5t19 -7.5t19 7.5t7.5 19t-7.5 19t-19.5 7.5zM191 69h23l32 -93h-19l-9 26h-31l-9 -26h-19zM189 15h26
l-8 23q-1 4 -5 18q0 -1 -2 -7.5t-3 -10.5zM163 69l-27 -93h-19l-11 44q-3 17 -5 30q-3 -16 -7 -30l-11 -44h-20l-24 93h19l10 -42q3 -17 6 -33q2 8 8 33l10 42h19l10 -43q4 -18 6 -31q2 12 7 32l10 42h19zM278 14v-38h-18v92q12 2 27 2q22 0 31 -8q8 -6 8 -18q0 -17 -17 -24
q9 -3 13 -18q6 -23 8 -26h-18q-3 5 -7 22q-4 16 -18 16h-9zM278 56v-29h11q20 0 20 15t-20 15q-7 0 -11 -1z" />
    <glyph glyph-name="xacml" unicode="&#xe69f;" horiz-adv-x="443" 
d="M407 258h36v-157h-36v-165h-371v165h-3h-33v157h33h3v190h258l113 -109v-81zM63 421v-163h316v69h-93v94h-223zM318 135l17 66v-66h16v84h-26l-15 -57l-15 57h-25v-84h15v66l17 -66h16zM205.5 155q-5.5 7 -5.5 23q0 14 6 21t15 7q7 0 11.5 -3.5t5.5 -10.5l17 4
q-2 10 -9 15q-9 10 -24 10q-18 0 -29 -12t-11 -33q0 -19 11 -31q11 -11 28 -11q13 0 22 6q8 7 12 21l-16 5q-2 -9 -7 -13q-5 -5 -11 -5q-10 0 -15.5 7zM176 135l-33 84h-18l-32 -84h17l7 19h34l7 -19h18zM35 135l1 2l17 27l10 -16l9 -13h20l-28 43l26 41h-20l-7 -11l-10 -16
l-16 27h-1h-19l19 -30l7 -10l-7 -11l-22 -33h21zM379 -37v138h-316v-138h316zM427 135v14h-20h-22v69h-6h-11v-83h11h28h20zM358 20l-55 -30v17l37 18l-37 17v14l55 -25v-11zM278 -13h-15l22 88h15zM256 -10l-55 30v11l55 25v-14l-37 -17l37 -18v-17zM123 168l11 31l11 -31
h-22z" />
    <glyph glyph-name="wsdl" unicode="&#xe6a0;" horiz-adv-x="443" 
d="M407 258h36v-157h-36v-165h-371v165h-36v157h36v190h258l113 -109v-81zM391 135v14h-42v69h-17v-83h59zM63 421v-163h316v69h-93v94h-223zM317 176q0 13 -2 20q-3 8 -9 14q-4 5 -12 7q-6 2 -16 2h-31v-84h32q10 0 15 2q7 2 12 7q6 5 9 14q2 8 2 18zM214.5 164.5
q1.5 -1.5 1.5 -5.5t-4 -8q-4 -3 -13 -3q-8 0 -12 4t-6 12l-16 -2q1 -13 10 -21q8 -7 24 -7q11 0 19 3t11 9q4 7 4 14t-3.5 13t-9.5 8q-5 3 -18 7q-12 2 -15 5q-3 2 -3 5q0 4 3 5q3 3 11 3t11 -2q3 -3 5 -10l16 1q0 11 -8 19q-8 7 -24 7q-9 0 -16 -3q-8 -4 -10 -9
q-4 -6 -4 -12q0 -10 8 -17q5 -5 19 -8q12 -3 13 -4q5 -2 6.5 -3.5zM161 219h-18l-12 -58l-15 58h-20l-16 -57l-12 57h-18l13 -53l8 -31h18l16 63l17 -63h18zM379 -37v138h-316v-138h316zM358 20l-55 -30v17l37 18l-37 17v14l55 -25v-11zM278 -13h-15l22 88h15zM298 192
q2 -6 2 -15t-2 -15t-4 -8q-3 -3 -7 -4q-3 -1 -11 -1h-12v56h8q9 0 13 -1q5 -1 8 -4q3 -2 5 -8zM256 -10l-55 30v11l55 25v-14l-37 -17l37 -18v-17z" />
    <glyph glyph-name="wadl" unicode="&#xe6a1;" horiz-adv-x="443" 
d="M407 258h36v-157h-36v-165h-371v165h-3h-33v157h36v190h258l113 -109v-81zM63 421v-163h316v69h-93v94h-223zM317 176q0 13 -2 20q-3 8 -9 14q-4 5 -12 7q-6 2 -16 2h-31v-84h32q10 0 15 2q7 2 12 7q6 5 9 14q2 8 2 18zM238 135l-34 84h-17l-33 -84h18l7 19h33l8 -19h18z
M68 219h-18l13 -53l8 -31h18l16 63l17 -63h18l21 84h-18l-12 -58l-15 58h-20l-16 -57zM379 -37v138h-316v-138h316zM391 135v14h-42v69h-17v-83h59zM358 20l-55 -30v17l37 18l-37 17v14l55 -25v-11zM278 -13h-15l22 88h15zM298 192q2 -6 2 -15t-2 -15t-4 -8q-3 -3 -7 -4
q-3 -1 -11 -1h-12v56h8q9 0 13 -1q5 -1 8 -4q3 -2 5 -8zM256 -10l-55 30v11l55 25v-14l-37 -17l37 -18v-17zM184 168l11 31l12 -31h-23z" />
    <glyph glyph-name="xq" unicode="&#xe6a2;" horiz-adv-x="443" 
d="M407 258h36v-157h-36v-165h-371v165h-3h-33v157h33h3v190h258l113 -109v-81zM63 421v-163h316v69h-93v94h-223zM304 139q-7 2 -13 7q5 6 7 12q3 7 3 19q0 21 -11 32.5t-29.5 11.5t-29.5 -12q-11 -11 -11 -32q0 -20 11 -31.5t30 -11.5q11 0 18 4q11 -8 12 -8q4 -2 7 -3z
M139 219l26 -40l-28 -44h20l19 29l18 -29h21l-29 43l26 41h-20l-16 -27l-17 27h-20zM379 -37v138h-316v-138h316zM358 20l-55 -30v17l37 18l-37 17v14l55 -25v-11zM278 -13h-15l22 88h15zM277.5 199q6.5 -7 6.5 -22q0 -6 -2 -12t-5 -10q-8 6 -16 9l-5 -10q5 -1 11 -5
q-3 -1 -7 -1q-10 0 -16 7q-7 7 -7 22q0 14 7 22q6 7 16.5 7t17 -7zM256 -10l-55 30v11l55 25v-14l-37 -17l37 -18v-17z" />
    <glyph glyph-name="xsd" unicode="&#xe6a3;" horiz-adv-x="443" 
d="M407 258h36v-157h-36v-165h-371v165h-3h-33v157h33h3v190h258l113 -109v-81zM63 421v-163h316v69h-93v94h-223zM336 176q0 13 -3 20q-3 8 -8 14q-5 5 -13 7q-6 2 -16 2h-30v-84h31q11 0 15 2q7 2 12 7q6 5 9 14q3 8 3 18zM233 165q1 -3 1 -6q0 -4 -4 -8q-4 -3 -12 -3
t-12 4q-5 3 -6 12l-17 -2q2 -14 10 -21t25 -7q10 0 18 3t11 9q4 6 4 14q0 7 -3 13q-4 6 -9 8q-5 3 -18 7q-13 2 -16 5q-2 2 -2 5q0 4 2 5q4 3 12 3q7 0 10 -2q4 -4 5 -10l17 1q0 11 -8 19q-9 7 -24 7q-10 0 -17 -3q-7 -4 -10 -9q-4 -7 -4 -12q0 -10 8 -17q6 -5 19 -8
q12 -3 14 -4q4 -1 6 -3zM103 219l26 -40l-28 -44h20l19 29l18 -29h21l-29 43l26 41h-19l-17 -27l-17 27h-20zM379 -37v138h-316v-138h316zM358 20l-55 -30v17l37 18l-37 17v14l55 -25v-11zM317 192q1 -5 1 -15t-1 -15q-2 -6 -5 -8q-3 -3 -7 -4q-3 -1 -10 -1h-13v56h8
q10 0 14 -1q5 -1 8 -4q2 -2 5 -8zM278 -13h-15l22 88h15zM256 -10l-55 30v11l55 25v-14l-37 -17l37 -18v-17z" />
    <glyph glyph-name="xslt" unicode="&#xe6a4;" horiz-adv-x="443" 
d="M358 20l-55 -30v17l37 18l-37 17v14l55 -25v-11zM300 75l-22 -88h-15l22 88h15zM256 7v-17l-55 30v11l55 25v-14l-37 -17zM443 258v-157h-36v-165h-371v165h-3h-33v157h33h3v190h258l113 -109v-81h36zM379 101h-316v-138h316v138zM105 179l-29 -44h20l19 29l18 -29h21
l-29 43l26 41h-19l-17 -27l-17 27h-19zM210 159q0 -4 -4 -8q-5 -3 -13 -3t-12 4q-4 3 -6 12l-17 -2q2 -14 11 -21q7 -7 24 -7q10 0 18 3t11 9q4 6 4 14q0 7 -3 13t-9 8q-5 3 -18 7q-13 2 -16 5q-2 2 -2 5q0 4 2 5q4 3 12 3q7 0 11 -2q3 -4 4 -10l17 1q0 11 -8 19q-9 7 -24 7
q-9 0 -16 -3q-7 -4 -11 -9q-4 -7 -4 -12q0 -10 8 -17q6 -5 19 -8q12 -3 14 -4q4 -1 6 -3q2 -3 2 -6zM258 149v69h-17v-83h59v14h-42zM322 205v-70h17v70h25v14h-67v-14h25zM379 327h-93v94h-223v-163h316v69z" />
    <glyph glyph-name="zoom-in" unicode="&#xe6a5;" 
d="M329 258v-55h-81v-77h-55v81h-84v54h84v81h55v-84h81zM398 110l114 -114l-57 -60q-89 90 -115 116l-0.5 0.5l-0.5 0.5q-2 2 -7 -1q-3 -2 -10 -5l-14 -6l-7 -3q-40 -19 -82.5 -20.5t-80 13.5t-68 41.5t-49.5 65t-21 82.5q-3 94 60 161t154 67q130 0 191 -110
q58 -101 0 -217q-4 -7 -7 -11zM221 66q69 2 117.5 51t48.5 118q-2 45 -25 83t-61.5 59t-83.5 20q-72 -3 -120 -52t-45 -118q2 -69 51.5 -116.5t117.5 -44.5z" />
    <glyph glyph-name="zoom-out" unicode="&#xe6a6;" 
d="M351 203h-264v55h264v-55zM398 110l114 -114l-57 -60q-89 90 -115 116l-0.5 0.5l-0.5 0.5q-2 2 -7 -1q-3 -2 -10 -5l-14 -6l-7 -3q-40 -19 -82.5 -20.5t-80 13.5t-68 41.5t-49.5 65t-21 82.5q-3 94 60 161t154 67q130 0 191 -110q58 -101 0 -217q-4 -7 -7 -11zM221 66
q69 2 117.5 51t48.5 118q-2 45 -25 83t-61.5 59t-83.5 20q-72 -3 -120 -52t-45 -118q2 -69 51.5 -116.5t117.5 -44.5z" />
    <glyph glyph-name="wso2-logo" unicode="&#xe6a7;" 
d="M177 176q15 33 42 93l36 80q15 -38 45 -110.5t45 -107.5q35 65 39 71h37.5h37.5q1 -11 1 -20h-64q-42 -75 -54 -97q-13 32 -42.5 103.5t-45.5 109.5q-9 -20 -20.5 -45.5l-23 -51t-20.5 -45.5h-135q-2 14 -2 20h62h62zM52 346q33 44 82 70.5t103 30.5q66 4 121 -21
q29 -12 54 -31.5t44.5 -44t33 -54t18.5 -59.5q16 -87 -25 -164q-26 -50 -72.5 -85t-101.5 -47q-75 -15 -146 12q-69 27 -112 86q-23 30 -36 66t-15 73q-5 94 52 168zM314 386q-54 16 -108 3q-27 -7 -51.5 -21.5t-44.5 -35t-33 -45.5q-28 -49 -25 -112h1q0 -6 2 -20
q8 -48 38.5 -88t74.5 -61q74 -36 152 -9q64 21 103 77q34 48 37 107q0 9 -1 20q-3 60 -37 108q-41 58 -108 77z" />
    <glyph glyph-name="wso2" unicode="&#xe6a8;" 
d="M195 290h9h9q-8 -19 -29 -71t-33 -81h-1q-5 12 -20 49.5t-24 57.5l-23 -57.5t-21 -51.5q-34 84 -62 154h18q2 -4 18.5 -45.5t25.5 -62.5q43 105 44 108q9 -20 24 -57.5t20 -50.5q6 13 14.5 34t16 39.5t14.5 34.5zM277 214q11 -8 14 -13q7 -11 4 -28q-3 -18 -21 -29
q-13 -9 -31 -7q-16 1 -27 11q-10 10 -14 27q7 2 17 5q3 -16 12 -23q10 -7 24 -4q16 2 22 17q3 10 1 19q-2 6 -8 10q-12 8 -24 14q-11 4 -19 10q-9 7 -12 11q-7 11 -4 27q3 13 15 21q13 10 33 8q21 -3 31 -23q-1 -1 -5.5 -4l-7.5 -5q-1 1 -3 4l-3 4q-6 6 -12 8q-17 3 -27 -8
q-5 -5 -5 -14t6 -14q7 -5 19 -11q18 -8 25 -13zM446 177q-17 -32 -53 -39q-22 -5 -43 4q-21 8 -34 25q-14 19 -15 42q-2 28 15 51q21 28 56 30q19 1 36 -6q18 -8 30 -23t15 -34q5 -26 -7 -50zM397 155q19 6 31 23q10 14 11 32v6q-1 18 -12 33q-12 17 -32 23q-16 5 -33 1
q-26 -7 -39 -31q-8 -15 -7 -34v0h19h19q4 10 12 28t11 24q5 -11 14 -33t13 -32q11 20 12 21h23v-6h-20q-13 -24 -16 -29q-4 10 -12.5 31.5t-13.5 32.5q-4 -8 -10.5 -23t-8.5 -20h-41q5 -31 34 -44q22 -11 46 -3zM455 106h57v-12h-84q7 7 17 18t19.5 21.5t17.5 18.5
q14 17 16 26q2 13 -7 22q-13 14 -31 6v13q13 3 25 -1q17 -5 23 -22q6 -18 -4 -34q-5 -9 -18 -23q-5 -5 -15.5 -16.5t-15.5 -16.5z" />
    <glyph glyph-name="hardware" unicode="&#xe6a9;" 
d="M60 275h40v-56h-40v12q-41 0 -49 1q-10 0 -11 9v12q1 9 11 9h49v13zM501 162q10 0 11 -9v-12q-1 -8 -11 -9h-49v-13h-41v56h41v-12q41 0 49 -1zM60 57v13h40v-57h-40v13h-49q-10 1 -11 9v12q1 9 11 9q8 1 49 1zM60 364v13h40v-56h-40v13h-15.5h-18.5h-15q-10 0 -11 9v12
q1 9 11 9h49zM452 337v-13h-41v57h41v-13h49q10 -1 11 -9v-12q-1 -9 -11 -9q-8 -1 -49 -1zM60 159v13h40v-56h-40v13h-49q-4 0 -7.5 2.5t-3.5 6.5v12q1 9 11 9h49zM501 60q10 0 11 -9v-12q-1 -9 -11 -9h-49v-13h-41v56h41v-13h49zM340 404q12 0 12 -12v-200v-200q0 -4 -1 -7
t-4 -4t-8 -1h-167q-12 0 -12 12v200.5v200.5q0 11 12 11h94h74zM396 404v-212.5v-212.5q0 -24 -9.5 -33.5t-33.5 -9.5h-194q-24 0 -33.5 9.5t-9.5 33.5v213v210q0 27 9.5 36.5t36.5 9.5h190q25 0 34.5 -9.5t9.5 -34.5zM373 403q0 22 -23 22h-84h-103q-24 0 -24 -24v-209.5
v-209.5q0 -23 22 -23h190q10 0 16 6t6 16v211v211zM501 265q10 0 11 -9v-12q-1 -9 -11 -9h-49v-13h-41v56h41v-13h49z" />
    <glyph glyph-name="raspberry" unicode="&#xe6aa;" horiz-adv-x="401" 
d="M366 216q16 -10 26 -28.5t8.5 -43.5t-20.5 -46q-1 -9 -11 -36q-3 -29 -21.5 -47t-31.5 -21q-27 -21 -52 -30q-27 -28 -63 -28h-1q-36 0 -63 28q-25 9 -52 30q-13 3 -31.5 21t-22.5 47q-9 27 -10 36q-19 21 -20.5 46t8.5 43.5t26 28.5l3 6q0 32 12 49.5t34 30.5
q-15 4 -17 13q-15 4 -17 16q-15 9 -14 19q-10 8 -8 18q-10 11 -5 20q-8 10 -1 21q-6 8 -1 15t17 6q5 8 24 8q5 6 16 4q8 8 22 2q4 4 9 4l13 -4q7 1 9 1t5.5 -2t4.5 -3q11 3 20 -7l2 -2l7 1q22 -13 30 -45q9 32 31 45l7 -1q0 1 2 2q9 10 20 7q1 1 4.5 3t5.5 2t9 -1
q1 0 4.5 1.5t5.5 2t5.5 0t6.5 -3.5q14 6 22 -2q11 2 16 -4q19 0 24 -8q12 1 16.5 -6t-0.5 -15q7 -11 -1 -21q4 -9 -5 -20q2 -10 -8 -18q1 -10 -14 -19q-2 -12 -17 -16q-2 -9 -17 -13q22 -13 34 -30.5t12 -49.5zM341 223q1 36 -23 55t-58 13q-12 -2 31 -39q47 -41 50 -29z
M235 419q-9 -10 -16 -22.5t-6 -27.5t16 -22q40 33 101 53q-67 -34 -92 -62q3 -15 17 -23t25 -9t22 0q-5 2 -7 5q2 1 12 2t15 4q-5 1 -7 4q20 6 24 10q-7 0 -10 2q19 10 23 14q-8 1 -9 2q10 7 18 15q-7 -1 -10 1q15 15 16 17q-7 -2 -11 0q1 2 6.5 6.5t8.5 10.5q-10 -1 -11 0
q2 8 10 18h-8l-16 1l6 6q-9 2 -26 -3q-3 3 4 9q-12 -1 -22 -5q0 2 -0.5 2.5t2.5 3.5l3 3q-12 -2 -22 -9q-4 3 2 10q-9 -3 -19 -12q-4 5 -1 9q-10 -5 -16 -13q-2 2 -2 9q-3 -2 -17 -17q-1 1 -3 8zM200 304q-19 1 -35.5 -10.5t-16.5 -21.5q0 -11 15 -20t37 -10q24 0 38.5 8
t14.5 19q1 13 -17 24t-36 11zM80 317q4 -2 10 -3t10.5 -1.5t6.5 -1.5q-2 -3 -7 -5q11 -1 22 0t25 9t17 23q-25 28 -92 62q61 -20 101 -53q15 7 16 22t-6 27.5t-16 22.5q-2 -7 -3 -8q-14 15 -17 17q0 -7 -2 -9q-6 8 -16 13q3 -4 -1 -9q-10 9 -19 12q6 -7 3 -10q-11 7 -23 9
q0 -1 2 -2q5 -5 3 -7q-10 4 -22 5q7 -6 4 -9q-17 5 -26 3l6 -6q0 -1 -24 -1q8 -10 10 -18q-1 -1 -11 0q3 -6 8.5 -10.5t6.5 -6.5q-4 -2 -11 0q1 -2 16 -17q-3 -2 -10 -1q8 -8 19 -15q-2 -1 -10 -2q4 -4 23 -14q-3 -2 -10 -2q4 -4 24 -10q-2 -3 -7 -4zM136 293
q-35 6 -58.5 -13t-22.5 -55q1 -14 48 26q43 38 33 42zM35 106q8 -4 16 16q14 37 8 69q-4 14 -12 13q-20 -11 -27 -31.5t-2 -38.5t17 -28zM126 8q10 8 6 29t-16 37q-15 17 -32 24.5t-29 0.5q-8 -5 -8 -24.5t11 -38.5q16 -23 37.5 -29.5t30.5 1.5zM100 127.5q18 -11.5 41 -5
t37 28t11 44.5t-21 35t-41 5.5t-37 -28t-11 -45t21 -35zM200 -48q20 0 38.5 13t18.5 22q0 8 -16.5 13.5t-34.5 5.5h-4q-19 1 -39 -6t-20 -16q0 -8 19 -20.5t38 -11.5zM260 77q0 23 -17.5 38.5t-41.5 15.5t-41 -16t-17 -38v-1q1 -22 18 -37.5t41 -15.5t41 16t17 38zM223 153
q14 -21 37 -27.5t41 5t21 35t-11 45t-37 28t-41 -5.5t-21 -35.5t11 -44.5zM341 34q13 19 12 41.5t-10 31.5q-20 15 -58 -27q-14 -16 -19 -39t4 -33q8 -4 18.5 -5t26 7t26.5 24zM361 108q19 15 19 44q0 36 -32 54q-8 2 -11 -11q-7 -31 7 -70q9 -20 17 -17z" />
    <glyph glyph-name="arduino" unicode="&#xe6ab;" 
d="M92 204h74v-24h-74v24zM407 72q-83 -11 -142 64q-2 2 -5 5.5t-3 4.5l-1 1q-22 -26 -23 -27q-65 -68 -146 -44q-43 13 -67 49t-19 81q3 40 33.5 70t72.5 36q72 11 130 -52q1 -1 19 -23q27 38 59 57q50 31 106 15.5t79 -67.5q28 -61 -5.5 -112t-87.5 -58zM228 197
q-18 27 -23 34q-35 39 -82 39q-17 -2 -18 -2q-28 -7 -46 -30.5t-16 -49.5q4 -39 36 -60.5t70 -10.5q48 14 81 72q2 4 -2 8zM449 242q-18 21 -45 27t-53 -5q-42 -18 -69 -68q-2 -4 1 -9q17 -30 39 -49q30 -24 64 -25q18 3 19 3q44 9 58.5 51t-14.5 75zM394 229v-25h25v-25
h-25v-24h-25v24h-24v25h24v25h25z" />
    <glyph glyph-name="organization" unicode="&#xe6ac;" 
d="M512 299h-2h-510l255 121l1 1zM123 257v-216h-56v216h56zM230 257v-216h-55v216h55zM336 257v-216h-55v216h55zM445 257v-216h-56v216h56zM21 -1h470v-36h-470v36z" />
    <glyph glyph-name="public" unicode="&#xe6ad;" 
d="M256 448q106 0 181 -75t75 -181t-75 -181t-181 -75t-181 75t-75 181t75 181t181 75zM145 26q-1 -5 -0.5 -10.5t4 -10t7.5 -6.5q67 -34 140 -20q83 15 134.5 83.5t41.5 152.5q0 1 -2 15q-2 -2 -2 -5q-4 -16 -16 -20q-2 0 -1 -4q0 -2 2 -6q7 -14 -3 -26q-5 -7 -15 -23
q-6 -9 -4 -20t-4 -20q-13 -24 -19 -34q-11 -19 -28 -32q-5 -5 -12 -7q-11 -5 -16 7q-1 5 -5 17l-6 18q-5 13 1 27q4 10 1 16q-2 5 -7.5 21.5t-12.5 24.5v1q-4 6 -11 4q-19 -7 -20 -7q-11 -2 -17 0q-24 9 -35 34q-3 8 -2 17l2 20q1 15 13 28q4 5 12.5 13.5l12.5 12.5
q-11 7 -13 14q-4 13 4.5 24.5t22.5 10.5q14 0 21 8q3 4 2 7q-7 16 9 22q1 1 4 2t5.5 2t4.5 2q1 1 12 9q-32 15 -65 19q-11 -12 -12 -12q-14 -17 -36 -18q-18 -1 -32 -11q-6 -5 -12 -9q-8 -4 -12 -1q-3 3 -2 12q1 1 2 6q1 1 4 12q-7 2 -18.5 -0.5t-15.5 -6.5l4 -2l2.5 -1
t3.5 -2.5t1 -3.5q0 -3 -7 -7q0 -1 -1 -1q-9 -5 -5 -15q3 -12 4 -17q2 -8 -9 -13q-5 -4 -12 3l-1 1q-4 3 -5 -2q-1 -1 -1.5 -4.5t-0.5 -4.5q-1 -5 -7 -6q-26 -8 -35 -29q-7 -16 -18 -22q-8 -4 -11 -8q-5 -5 -6 -9q-3 -15 10 -34q3 -6 9 -4q13 6 25 -5q10 -9 30 -23
q6 -3 10 -11q2 -6 6 -8q1 -1 5 -2.5t7 -2.5q24 -11 25 -11q11 -6 7 -19q-1 -4 -3 -7q-7 -10 -5 -24q1 -9 -0.5 -12t-10.5 -7q-12 -7 -12 -15q0 -12 -5 -25zM88 54q-3 23 -4 25q-1 13 -9 21q-26 28 -24 68q1 3 0 6t-2.5 5.5t-3 4.5t-3 5t-3.5 5q0 -78 49 -140zM409 273
q0 5 -6 7q-3 2 -5 2q-11 2 -19 2q-8 1 -12 7q-6 -9 -15 -6l3 -5q4 -12 16 -11q1 0 23 -2q6 -1 8 -1q6 1 7 7zM351 289l-3 7q-11 7 -22 12q-5 3 -8 0q-2 -1 -15 -15q3 0 7.5 1t7 1.5t7 1t7 0.5t6 -1t6.5 -2.5t6 -4.5h1z" />
    <glyph glyph-name="unmute" unicode="&#xe6ae;" 
d="M128 104h-128v179h132l153 132v-442zM416 357l29 23q9 -12 15 -21q31 -45 43 -99q6 -24 8 -47v-4.5v-4t0.5 -4t0.5 -4.5v-3v-9q0 -10 -1 -11q-1 -38 -12 -74q-17 -54 -52 -100l-31 20q1 3 5.5 9t7.5 9q28 43 39 92q9 38 6 76q-4 70 -42 129q-4 8 -16 23zM367 310l30 21
q27 -36 39 -79q7 -26 8 -52v-6v-5q0 -79 -46 -142l-31 21q10 13 16 24q15 27 20 58q5 25 4 51q-4 53 -32 97q-1 2 -4 6t-4 6zM314 258l32 20q8 -13 14 -27q9 -24 11 -49q0 -1 1 -12q-1 -48 -25 -88l-33 16q8 14 11 21q7 18 9 37q4 44 -20 82z" />
    <glyph glyph-name="group" unicode="&#xe6af;" 
d="M512 354h-33v-324h33v-94h-94v33h-324v-33h-94v94h33v324h-33v94h94v-33h324v33h94v-94zM27 382h6h33v33v6h-39v-39zM66 -37v6v33h-33h-6v-39h39zM485 2h-6h-33v-33v-6h39v39zM435 30v324h-17v17h-324v-17h-17v-324h17v-17h324v17h17zM446 382h33h6v39h-39v-6v-33z
M206 244v103h207v-207h-107v-103h-207v207h107zM279 168v48h-46v-48h46zM279 64v76h-73v76h-79v-152h152zM233 320v-76h73v-76h79v152h-152z" />
    <glyph glyph-name="question" unicode="&#xe6b0;" horiz-adv-x="305" 
d="M102 79q0 49 11 70.5t49 53.5q27 27 43 51t16 53q0 34 -18 52.5t-52 18.5q-29 0 -49 -16t-20 -47h-81l-1 2q-1 62 41.5 96.5t109.5 34.5q73 0 113.5 -37t40.5 -103q0 -44 -25.5 -81.5t-63.5 -69.5q-20 -17 -25 -32.5t-5 -45.5h-84zM187 -64h-86v81h86v-81z" />
    <glyph glyph-name="square" unicode="&#xe6b1;" 
d="M0 -64v512h512v-512h-512z" />
    <glyph glyph-name="square-outline" unicode="&#xe6b2;" 
d="M0 448h512v-512h-512v512zM472 -24h3v432h-435v-432h432z" />
    <glyph glyph-name="sync" unicode="&#xe6b3;" 
d="M26 193l131 -55l-55 -29q23 -43 65 -69t93 -26q53 0 97 28.5t64 73.5h51q-22 -66 -80.5 -108t-131.5 -42q-65 0 -117.5 32.5t-80.5 88.5l-62 -33zM260 416q61 0 113.5 -32t83.5 -85l55 33l-22 -139l-135 51l58 33q-11 21 -27 37.5t-35.5 28.5t-43 18.5t-47.5 6.5
q-54 0 -98 -28.5t-63 -73.5h-51q22 67 80 108.5t132 41.5z" />
    <glyph glyph-name="loader" unicode="&#xe6b4;" horiz-adv-x="505" 
d="M252.5 338q-60.5 0 -103.5 -43t-43 -103t43 -103t103.5 -43t103.5 43t43 103t-43 103t-103.5 43zM417 346l-44 -44q40 -46 40 -110q0 -68 -47.5 -116.5t-113.5 -48.5q-68 0 -114.5 48t-46.5 117q0 60 41 106l-52 40q-54 -67 -54 -146q0 -93 66.5 -160t160 -67t160 67
t66.5 160q0 85 -62 154zM252.5 448q104.5 0 178.5 -74.5t74 -181.5t-74 -181.5t-178.5 -74.5t-178.5 74.5t-74 181.5t74 181.5t178.5 74.5z" />
    <glyph glyph-name="ungroup" unicode="&#xe6b5;" 
d="M512 382h-22v-234h22v-66h-69v22h-103v-102h26v-66h-70v22h-230v-22h-66v69h22v235h-22v65h66v-25h102v102h-22v66h66v-26h234v26h66v-66zM165 400v4h7h22v22v4h-29v-30zM48 -42h-4v26h-22h-4v-30h30v4zM48 280v3h-30v-25h4h26v22zM347 -16h-7h-22v-26v-4h29v30zM311 2
h-4v102h-95v-22h-66v66h22v99h-102v-11h-11v-234h11v-11h234v11h11zM311 236h-11v11h-99v-99h11v-15h99v103zM194 126h-26h-3v-29h29v4v25zM457 148h-4v234h-10v11h-231v-11h-11v-102h99v25h66v-69h-26v-99h106v11h11zM318 258v-4h22h7v29h-29v-3v-22zM494 126h-8h-22v-22
v-7h30v29zM464 400h26h4v30h-30v-8v-22z" />
    <glyph glyph-name="enterprise" unicode="&#xe6b6;" horiz-adv-x="416" 
d="M376 -36h40v-28h-40h-335h-1h-40v28h40v11v473h336v-473v-11zM287 408v-48h49v48h-49zM287 270v-48h49v48h-49zM336 201h-49v-48h49v48zM218 271v-49h49v49h-49zM218 291h49v48h-49v-48zM267 202h-48v-49h48v49zM218 132v-48h49v48h-49zM149 409v-49h49v49h-49zM149 291
h49v48h-49v-48zM198 270h-49v-48h49v48zM80 409v-49h49v49h-49zM129 339h-49v-48h49v48zM129 84v48h-49v-48h49zM129 153v49h-49v-49h49zM129 222v48h-49v-48h49zM198 -24v87h-49v-87h49zM198 84v48h-49v-48h49zM198 153v48h-49v-48h49zM267 -24v87h-49v-87h49zM267 360v49
h-49v-49h49zM336 84v48h-49v-48h49zM336 291v48h-49v-48h49z" />
    <glyph glyph-name="grip" unicode="&#xe6b7;" horiz-adv-x="241" 
d="M95 353h-95v95h95v-95zM95 309v-95h-95v95h95zM95 170v-95h-95v95h95zM95 31v-95h-95v95h95zM241 448v-95h-95v95h95zM241 309v-95h-95v95h95zM241 170v-95h-95v95h95zM241 31v-95h-95v95h95z" />
    <glyph glyph-name="sign-out" unicode="&#xe6b8;" horiz-adv-x="475" 
d="M150 104l-29 -29l-121 113l117 125l33 -30l-70 -69h249v-44h-245zM95 448h380v-512h-380v113h44v-69h293v424h-293v-73h-44v117z" />
    <glyph glyph-name="retweet" unicode="&#xe6b9;" 
d="M102 313l103 -103h-66v-128h117v-69h-187v197h-69zM238 371h205v-190h69l-102 -102l-99 102h66v121h-139v69z" />
    <glyph glyph-name="loader2" unicode="&#xe6ba;" horiz-adv-x="505" 
d="M0 144h77q24 -42 55 -73q29 -29 69 -49.5t79.5 -29.5t77 -7.5t63.5 13.5q-75 -62 -169 -62q-93 0 -164.5 59t-87.5 149zM252 448q63 0 117 -28t89.5 -76t46.5 -108h-73q-30 52 -59 77q-44 44 -105 67t-117 18.5t-89 -34.5q78 84 190 84z" />
    <glyph glyph-name="loader3" unicode="&#xe6bb;" horiz-adv-x="395" 
d="M59 86q27 -31 68.5 -48t84.5 -14q69 5 124 55l59 -66q-75 -70 -179 -81q-62 -2 -118 20t-98 64zM201 448h15q104 -5 179 -80l-59 -66q-53 53 -124 58q-45 3 -85 -14t-68 -48l-59 66q39 39 92 61.5t109 22.5z" />
    <glyph glyph-name="loader4" unicode="&#xe6bc;" horiz-adv-x="508" 
d="M256 448q63 0 117 -28t89 -76t46 -108h-51q-17 70 -72.5 117t-128.5 47q-87 0 -147.5 -61t-60.5 -147q0 -85 60 -146.5t144 -61.5q72 0 129.5 42t97.5 118q-14 -92 -73 -150.5t-150 -61.5h-4v0v0h-25h-8q-94 17 -156.5 89.5t-62.5 170.5q0 107 74.5 181.5t181.5 74.5z
" />
    <glyph glyph-name="loader5" unicode="&#xe6bd;" horiz-adv-x="505" 
d="M263 -9q12 0 21 -8t9 -21q0 -12 -8.5 -21t-21.5 -9q-11 0 -20 8t-9 22q6 29 29 29zM421 79q11 0 20 -8.5t9 -21.5q0 -7 -3.5 -13.5t-10.5 -11t-15 -4.5q-12 0 -21 8t-9 21q1 5 3 9t5 8t6 6.5t7 4.5t9 2zM80 79q12 0 21 -8.5t9 -21.5q0 -11 -8 -20t-22 -9q-11 0 -20 8
t-9 21q2 8 6 14.5t10 11t13 4.5zM475 210q12 0 21 -8t9 -21q0 -12 -8 -20.5t-22 -8.5q-11 0 -20 8t-9 21q3 12 11 20.5t18 8.5zM36.5 218q14.5 0 25.5 -10.5t11 -26.5q0 -14 -10.5 -25.5t-25.5 -11.5t-26 10.5t-11 26.5t11 26.5t25.5 10.5zM98.5 371q18.5 0 31.5 -13.5
t13 -30.5q0 -19 -12.5 -31.5t-31.5 -12.5t-31.5 12.5t-12.5 31.5q0 17 12.5 30.5t31 13.5zM421 371q19 0 31 -12t12 -31.5t-12 -32t-31.5 -12.5t-31.5 12.5t-12 31.5q0 17 13.5 30.5t30.5 13.5zM263.5 448q19.5 0 33.5 -14t14 -33.5t-14 -33.5t-33.5 -14t-33.5 14t-14 33.5
t14 33.5t33.5 14z" />
    </font>
</defs>
</svg>
